solid 
 facet normal  9.987278e-01  5.042633e-02  0.000000e+00
   outer loop
     vertex  4.200000e-01 -1.028703e-16  1.200000e+00
     vertex  4.200000e-01 -1.028703e-16  0.000000e+00
     vertex  4.178640e-01  4.230423e-02  0.000000e+00
   endloop
 endfacet
 facet normal  9.885695e-01  1.507661e-01 -9.334182e-05
   outer loop
     vertex  4.176206e-01  4.464326e-02  1.200000e+00
     vertex  4.178640e-01  4.230423e-02  0.000000e+00
     vertex  4.114779e-01  8.417817e-02  0.000000e+00
   endloop
 endfacet
 facet normal  9.985827e-01  5.322217e-02  9.882168e-05
   outer loop
     vertex  4.176206e-01  4.464326e-02  1.200000e+00
     vertex  4.200000e-01 -1.028703e-16  1.200000e+00
     vertex  4.178640e-01  4.230423e-02  0.000000e+00
   endloop
 endfacet
 facet normal  9.683561e-01  2.495724e-01 -1.757218e-04
   outer loop
     vertex  4.105094e-01  8.878070e-02  1.200000e+00
     vertex  4.114779e-01  8.417817e-02  0.000000e+00
     vertex  4.009065e-01  1.251959e-01  0.000000e+00
   endloop
 endfacet
 facet normal  9.872683e-01  1.590635e-01  1.866829e-04
   outer loop
     vertex  4.105094e-01  8.878070e-02  1.200000e+00
     vertex  4.176206e-01  4.464326e-02  1.200000e+00
     vertex  4.114779e-01  8.417817e-02  0.000000e+00
   endloop
 endfacet
 facet normal  9.647678e-01  2.631026e-01  2.635809e-04
   outer loop
     vertex  3.987470e-01  1.319122e-01  1.200000e+00
     vertex  4.105094e-01  8.878070e-02  1.200000e+00
     vertex  4.009065e-01  1.251959e-01  0.000000e+00
   endloop
 endfacet
 facet normal  9.382934e-01  3.458402e-01 -2.471373e-04
   outer loop
     vertex  3.987470e-01  1.319122e-01  1.200000e+00
     vertex  4.009065e-01  1.251959e-01  0.000000e+00
     vertex  3.862573e-01  1.649403e-01  0.000000e+00
   endloop
 endfacet
 facet normal  9.313361e-01  3.641606e-01  3.295133e-04
   outer loop
     vertex  3.824666e-01  1.735491e-01  1.200000e+00
     vertex  3.987470e-01  1.319122e-01  1.200000e+00
     vertex  3.862573e-01  1.649403e-01  0.000000e+00
   endloop
 endfacet
 facet normal  8.986871e-01  4.385903e-01 -3.075860e-04
   outer loop
     vertex  3.824666e-01  1.735491e-01  1.200000e+00
     vertex  3.862573e-01  1.649403e-01  0.000000e+00
     vertex  3.676795e-01  2.030069e-01  0.000000e+00
   endloop
 endfacet
 facet normal  8.873520e-01  4.610925e-01  3.844780e-04
   outer loop
     vertex  3.618527e-01  2.132196e-01  1.200000e+00
     vertex  3.824666e-01  1.735491e-01  1.200000e+00
     vertex  3.676795e-01  2.030069e-01  0.000000e+00
   endloop
 endfacet
 facet normal  8.499399e-01  5.268795e-01 -3.570662e-04
   outer loop
     vertex  3.618527e-01  2.132196e-01  1.200000e+00
     vertex  3.676795e-01  2.030069e-01  0.000000e+00
     vertex  3.453618e-01  2.390088e-01  0.000000e+00
   endloop
 endfacet
 facet normal  8.333138e-01  5.528000e-01  4.284733e-04
   outer loop
     vertex  3.371389e-01  2.504743e-01  1.200000e+00
     vertex  3.618527e-01  2.132196e-01  1.200000e+00
     vertex  3.453618e-01  2.390088e-01  0.000000e+00
   endloop
 endfacet
 facet normal  7.925478e-01  6.098096e-01 -3.955763e-04
   outer loop
     vertex  3.371389e-01  2.504743e-01  1.200000e+00
     vertex  3.453618e-01  2.390088e-01  0.000000e+00
     vertex  3.195314e-01  2.725796e-01  0.000000e+00
   endloop
 endfacet
 facet normal  7.698339e-01  6.382441e-01  4.614978e-04
   outer loop
     vertex  3.086051e-01  2.848910e-01  1.200000e+00
     vertex  3.371389e-01  2.504743e-01  1.200000e+00
     vertex  3.195314e-01  2.725796e-01  0.000000e+00
   endloop
 endfacet
 facet normal  7.270945e-01  6.865372e-01 -4.231150e-04
   outer loop
     vertex  3.086051e-01  2.848910e-01  1.200000e+00
     vertex  3.195314e-01  2.725796e-01  0.000000e+00
     vertex  2.904510e-01  3.033780e-01  0.000000e+00
   endloop
 endfacet
 facet normal  6.976314e-01  7.164567e-01  4.835505e-04
   outer loop
     vertex  2.765748e-01  3.160797e-01  1.200000e+00
     vertex  3.086051e-01  2.848910e-01  1.200000e+00
     vertex  2.904510e-01  3.033780e-01  0.000000e+00
   endloop
 endfacet
 facet normal  6.542458e-01  7.562819e-01 -4.396815e-04
   outer loop
     vertex  2.765748e-01  3.160797e-01  1.200000e+00
     vertex  2.904510e-01  3.033780e-01  0.000000e+00
     vertex  2.584163e-01  3.310906e-01  0.000000e+00
   endloop
 endfacet
 facet normal  6.175245e-01  7.865515e-01  4.946307e-04
   outer loop
     vertex  2.414107e-01  3.436872e-01  1.200000e+00
     vertex  2.765748e-01  3.160797e-01  1.200000e+00
     vertex  2.584163e-01  3.310906e-01  0.000000e+00
   endloop
 endfacet
 facet normal  5.747425e-01  8.183342e-01 -4.452752e-04
   outer loop
     vertex  2.414107e-01  3.436872e-01  1.200000e+00
     vertex  2.584163e-01  3.310906e-01  0.000000e+00
     vertex  2.237532e-01  3.554356e-01  0.000000e+00
   endloop
 endfacet
 facet normal  5.304208e-01  8.477343e-01  4.947380e-04
   outer loop
     vertex  2.035114e-01  3.674005e-01  1.200000e+00
     vertex  2.414107e-01  3.436872e-01  1.200000e+00
     vertex  2.237532e-01  3.554356e-01  0.000000e+00
   endloop
 endfacet
 facet normal  4.893934e-01  8.720630e-01 -4.398961e-04
   outer loop
     vertex  2.035114e-01  3.674005e-01  1.200000e+00
     vertex  2.237532e-01  3.554356e-01  0.000000e+00
     vertex  1.868143e-01  3.761654e-01  0.000000e+00
   endloop
 endfacet
 facet normal  3.272065e-01  9.449525e-01 -8.730064e-04
   outer loop
     vertex  1.311598e-01  3.989951e-01  1.118717e-01
     vertex  1.324584e-01  3.985659e-01  1.339983e-01
     vertex  1.479752e-01  3.930691e-01  0.000000e+00
   endloop
 endfacet
 facet normal  3.166876e-01  9.485262e-01 -2.643403e-03
   outer loop
     vertex  1.261346e-01  4.006121e-01  9.006464e-02
     vertex  1.311598e-01  3.989951e-01  1.118717e-01
     vertex  1.479752e-01  3.930691e-01  0.000000e+00
   endloop
 endfacet
 facet normal  3.046755e-01  9.524380e-01 -5.883936e-03
   outer loop
     vertex  1.076310e-01  4.059748e-01  0.000000e+00
     vertex  1.261346e-01  4.006121e-01  9.006464e-02
     vertex  1.479752e-01  3.930691e-01  0.000000e+00
   endloop
 endfacet
 facet normal  3.010595e-01  9.535919e-01 -5.072330e-03
   outer loop
     vertex  1.076310e-01  4.059748e-01  0.000000e+00
     vertex  1.174187e-01  4.032528e-01  6.919744e-02
     vertex  1.261346e-01  4.006121e-01  9.006464e-02
   endloop
 endfacet
 facet normal  4.373073e-01  8.993120e-01  4.838724e-04
   outer loop
     vertex  1.633062e-01  3.869510e-01  1.200000e+00
     vertex  2.035114e-01  3.674005e-01  1.200000e+00
     vertex  1.868143e-01  3.761654e-01  0.000000e+00
   endloop
 endfacet
 facet normal  3.376356e-01  9.412768e-01  4.854566e-04
   outer loop
     vertex  1.633062e-01  3.869510e-01  1.200000e+00
     vertex  1.479752e-01  3.930691e-01  0.000000e+00
     vertex  1.324584e-01  3.985659e-01  1.339983e-01
   endloop
 endfacet
 facet normal  3.990666e-01  9.169218e-01 -4.235442e-04
   outer loop
     vertex  1.633062e-01  3.869510e-01  1.200000e+00
     vertex  1.868143e-01  3.761654e-01  0.000000e+00
     vertex  1.479752e-01  3.930691e-01  0.000000e+00
   endloop
 endfacet
 facet normal  3.200399e-01  9.474035e-01  1.061393e-03
   outer loop
     vertex  1.633062e-01  3.869510e-01  1.200000e+00
     vertex  1.324584e-01  3.985659e-01  1.339983e-01
     vertex  1.295795e-01  3.995111e-01  1.583255e-01
   endloop
 endfacet
 facet normal  2.333687e-01  9.723878e-01 -1.035861e-03
   outer loop
     vertex  8.988624e-02  4.102688e-01  3.311232e-02
     vertex  1.052033e-01  4.066107e-01  4.997706e-02
     vertex  1.076310e-01  4.059748e-01  0.000000e+00
   endloop
 endfacet
 facet normal  2.071699e-01  9.781769e-01 -1.582643e-02
   outer loop
     vertex  6.619210e-02  4.147513e-01  0.000000e+00
     vertex  8.988624e-02  4.102688e-01  3.311232e-02
     vertex  1.076310e-01  4.059748e-01  0.000000e+00
   endloop
 endfacet
 facet normal  1.956130e-01  9.806546e-01 -7.221254e-03
   outer loop
     vertex  6.619210e-02  4.147513e-01  0.000000e+00
     vertex  6.991666e-02  4.141397e-01  1.783733e-02
     vertex  8.988624e-02  4.102688e-01  3.311232e-02
   endloop
 endfacet
 facet normal  3.392388e-01  9.407002e-01  3.589572e-04
   outer loop
     vertex  1.212506e-01  4.021173e-01  1.200000e+00
     vertex  1.633062e-01  3.869510e-01  1.200000e+00
     vertex  1.295795e-01  3.995111e-01  1.583255e-01
   endloop
 endfacet
 facet normal  2.998274e-01  9.539935e-01  1.057777e-05
   outer loop
     vertex  1.212506e-01  4.021173e-01  1.200000e+00
     vertex  1.295795e-01  3.995111e-01  1.583255e-01
     vertex  1.222409e-01  4.018173e-01  1.817386e-01
   endloop
 endfacet
 facet normal  2.771848e-01  9.608166e-01 -1.345217e-05
   outer loop
     vertex  1.212506e-01  4.021173e-01  1.200000e+00
     vertex  1.222409e-01  4.018173e-01  1.817386e-01
     vertex  1.105878e-01  4.051794e-01  2.035383e-01
   endloop
 endfacet
 facet normal  2.451135e-01  9.694943e-01  3.563998e-04
   outer loop
     vertex  1.212506e-01  4.021173e-01  1.200000e+00
     vertex  1.105878e-01  4.051794e-01  2.035383e-01
     vertex  9.492153e-02  4.091331e-01  2.229271e-01
   endloop
 endfacet
 facet normal  1.072777e-01  9.911830e-01 -7.776738e-02
   outer loop
     vertex  2.407993e-02  4.193091e-01  0.000000e+00
     vertex  4.778172e-02  4.172732e-01  6.746581e-03
     vertex  6.619210e-02  4.147513e-01  0.000000e+00
   endloop
 endfacet
 facet normal  2.373267e-01  9.714297e-01  5.801271e-04
   outer loop
     vertex  7.782126e-02  4.127273e-01  1.200000e+00
     vertex  1.212506e-01  4.021173e-01  1.200000e+00
     vertex  9.492153e-02  4.091331e-01  2.229271e-01
   endloop
 endfacet
 facet normal  2.032467e-01  9.791276e-01 -4.464054e-05
   outer loop
     vertex  7.782126e-02  4.127273e-01  1.200000e+00
     vertex  9.492153e-02  4.091331e-01  2.229271e-01
     vertex  7.579055e-02  4.131051e-01  2.390915e-01
   endloop
 endfacet
 facet normal  1.545817e-01  9.879800e-01  6.168440e-05
   outer loop
     vertex  7.782126e-02  4.127273e-01  1.200000e+00
     vertex  7.579055e-02  4.131051e-01  2.390915e-01
     vertex  5.398456e-02  4.165161e-01  2.513490e-01
   endloop
 endfacet
 facet normal  1.327255e-01  9.911526e-01  6.235348e-04
   outer loop
     vertex  3.351016e-02  4.186610e-01  1.200000e+00
     vertex  7.782126e-02  4.127273e-01  1.200000e+00
     vertex  5.398456e-02  4.165161e-01  2.513490e-01
   endloop
 endfacet
 facet normal  1.033642e-01  9.946436e-01 -1.805359e-05
   outer loop
     vertex  3.351016e-02  4.186610e-01  1.200000e+00
     vertex  5.398456e-02  4.165161e-01  2.513490e-01
     vertex  3.281849e-02  4.187158e-01  2.586758e-01
   endloop
 endfacet
 facet normal  5.200148e-02  9.986470e-01  1.992004e-05
   outer loop
     vertex  3.351016e-02  4.186610e-01  1.200000e+00
     vertex  3.281849e-02  4.187158e-01  2.586758e-01
     vertex  1.084577e-02  4.198599e-01  2.623387e-01
   endloop
 endfacet
 facet normal -1.317015e-01  9.912451e-01 -9.371244e-03
   outer loop
     vertex -6.822382e-02  4.144219e-01  0.000000e+00
     vertex -6.306869e-02  4.152377e-01  1.384163e-02
     vertex -4.408395e-02  4.176800e-01  5.372257e-03
   endloop
 endfacet
 facet normal -1.093992e-01  9.881454e-01 -1.077052e-01
   outer loop
     vertex -6.822382e-02  4.144219e-01  0.000000e+00
     vertex -4.408395e-02  4.176800e-01  5.372257e-03
     vertex -2.407993e-02  4.193091e-01  0.000000e+00
   endloop
 endfacet
 facet normal  2.662052e-02  9.996454e-01  6.346849e-04
   outer loop
     vertex -1.118062e-02  4.198512e-01  1.200000e+00
     vertex  3.351016e-02  4.186610e-01  1.200000e+00
     vertex  1.084577e-02  4.198599e-01  2.623387e-01
   endloop
 endfacet
 facet normal -3.543370e-03  9.999937e-01 -7.388477e-05
   outer loop
     vertex -1.118062e-02  4.198512e-01  1.200000e+00
     vertex  1.084577e-02  4.198599e-01  2.623387e-01
     vertex -1.382156e-02  4.197725e-01  2.620621e-01
   endloop
 endfacet
 facet normal -6.178528e-02  9.980895e-01  9.026582e-05
   outer loop
     vertex -1.118062e-02  4.198512e-01  1.200000e+00
     vertex -1.382156e-02  4.197725e-01  2.620621e-01
     vertex -3.804230e-02  4.182736e-01  2.572341e-01
   endloop
 endfacet
 facet normal -2.143413e-01  9.765665e-01 -1.938341e-02
   outer loop
     vertex -1.116048e-01  4.049004e-01  0.000000e+00
     vertex -8.387983e-02  4.115388e-01  2.786813e-02
     vertex -6.822382e-02  4.144219e-01  0.000000e+00
   endloop
 endfacet
 facet normal -2.268960e-01  9.738989e-01 -6.257702e-03
   outer loop
     vertex -1.116048e-01  4.049004e-01  0.000000e+00
     vertex -1.017061e-01  4.074995e-01  4.558778e-02
     vertex -8.387983e-02  4.115388e-01  2.786813e-02
   endloop
 endfacet
 facet normal -1.180007e-01  9.930135e-01 -1.202852e-04
   outer loop
     vertex -5.574472e-02  4.162842e-01  1.200000e+00
     vertex -3.804230e-02  4.182736e-01  2.572341e-01
     vertex -6.107999e-02  4.155349e-01  2.479452e-01
   endloop
 endfacet
 facet normal -1.706639e-01  9.853293e-01  1.808845e-04
   outer loop
     vertex -5.574472e-02  4.162842e-01  1.200000e+00
     vertex -6.107999e-02  4.155349e-01  2.479452e-01
     vertex -8.213701e-02  4.118902e-01  2.344008e-01
   endloop
 endfacet
 facet normal -7.978609e-02  9.968118e-01  6.052905e-04
   outer loop
     vertex -5.574472e-02  4.162842e-01  1.200000e+00
     vertex -1.118062e-02  4.198512e-01  1.200000e+00
     vertex -3.804230e-02  4.182736e-01  2.572341e-01
   endloop
 endfacet
 facet normal -2.904564e-01  9.568873e-01 -1.357571e-03
   outer loop
     vertex -1.257592e-01  4.007301e-01  8.891328e-02
     vertex -1.158195e-01  4.037150e-01  6.622292e-02
     vertex -1.116048e-01  4.049004e-01  0.000000e+00
   endloop
 endfacet
 facet normal -3.350378e-01  9.422042e-01 -9.939149e-04
   outer loop
     vertex -1.537378e-01  3.908512e-01  0.000000e+00
     vertex -1.323304e-01  3.986084e-01  1.373776e-01
     vertex -1.312978e-01  3.989497e-01  1.128616e-01
   endloop
 endfacet
 facet normal -3.216338e-01  9.468557e-01 -3.992775e-03
   outer loop
     vertex -1.537378e-01  3.908512e-01  0.000000e+00
     vertex -1.312978e-01  3.989497e-01  1.128616e-01
     vertex -1.257592e-01  4.007301e-01  8.891328e-02
   endloop
 endfacet
 facet normal -3.163211e-01  9.486341e-01 -5.862143e-03
   outer loop
     vertex -1.537378e-01  3.908512e-01  0.000000e+00
     vertex -1.257592e-01  4.007301e-01  8.891328e-02
     vertex -1.116048e-01  4.049004e-01  0.000000e+00
   endloop
 endfacet
 facet normal -1.852887e-01  9.826840e-01  5.926537e-04
   outer loop
     vertex -9.967721e-02  4.080006e-01  1.200000e+00
     vertex -5.574472e-02  4.162842e-01  1.200000e+00
     vertex -8.213701e-02  4.118902e-01  2.344008e-01
   endloop
 endfacet
 facet normal -2.153334e-01  9.765406e-01  2.214195e-05
   outer loop
     vertex -9.967721e-02  4.080006e-01  1.200000e+00
     vertex -8.213701e-02  4.118902e-01  2.344008e-01
     vertex -9.868947e-02  4.082406e-01  2.189100e-01
   endloop
 endfacet
 facet normal -2.512559e-01  9.679207e-01 -1.613340e-05
   outer loop
     vertex -9.967721e-02  4.080006e-01  1.200000e+00
     vertex -9.868947e-02  4.082406e-01  2.189100e-01
     vertex -1.123530e-01  4.046935e-01  2.007995e-01
   endloop
 endfacet
 facet normal -2.804902e-01  9.598568e-01  3.814215e-04
   outer loop
     vertex -9.967721e-02  4.080006e-01  1.200000e+00
     vertex -1.123530e-01  4.046935e-01  2.007995e-01
     vertex -1.226629e-01  4.016887e-01  1.807200e-01
   endloop
 endfacet
 facet normal -3.399079e-01  9.404587e-01 -1.364531e-04
   outer loop
     vertex -1.424803e-01  3.950941e-01  1.200000e+00
     vertex -1.323304e-01  3.986084e-01  1.373776e-01
     vertex -1.537378e-01  3.908512e-01  0.000000e+00
   endloop
 endfacet
 facet normal -2.886919e-01  9.574219e-01  5.814552e-04
   outer loop
     vertex -1.424803e-01  3.950941e-01  1.200000e+00
     vertex -9.967721e-02  4.080006e-01  1.200000e+00
     vertex -1.226629e-01  4.016887e-01  1.807200e-01
   endloop
 endfacet
 facet normal -3.009516e-01  9.536394e-01  3.186233e-04
   outer loop
     vertex -1.424803e-01  3.950941e-01  1.200000e+00
     vertex -1.226629e-01  4.016887e-01  1.807200e-01
     vertex -1.293526e-01  3.995847e-01  1.593666e-01
   endloop
 endfacet
 facet normal -3.125751e-01  9.498930e-01  1.558232e-04
   outer loop
     vertex -1.424803e-01  3.950941e-01  1.200000e+00
     vertex -1.293526e-01  3.995847e-01  1.593666e-01
     vertex -1.323304e-01  3.986084e-01  1.373776e-01
   endloop
 endfacet
 facet normal -4.147341e-01  9.099426e-01 -3.806236e-04
   outer loop
     vertex -1.836691e-01  3.777111e-01  1.200000e+00
     vertex -1.537378e-01  3.908512e-01  0.000000e+00
     vertex -1.941516e-01  3.724314e-01  0.000000e+00
   endloop
 endfacet
 facet normal -3.888241e-01  9.213119e-01  3.901385e-04
   outer loop
     vertex -1.836691e-01  3.777111e-01  1.200000e+00
     vertex -1.424803e-01  3.950941e-01  1.200000e+00
     vertex -1.537378e-01  3.908512e-01  0.000000e+00
   endloop
 endfacet
 facet normal -5.085041e-01  8.610595e-01 -3.744373e-04
   outer loop
     vertex -2.227768e-01  3.560485e-01  1.200000e+00
     vertex -1.941516e-01  3.724314e-01  0.000000e+00
     vertex -2.323944e-01  3.498469e-01  0.000000e+00
   endloop
 endfacet
 facet normal -4.845508e-01  8.747630e-01  3.840377e-04
   outer loop
     vertex -2.227768e-01  3.560485e-01  1.200000e+00
     vertex -1.836691e-01  3.777111e-01  1.200000e+00
     vertex -1.941516e-01  3.724314e-01  0.000000e+00
   endloop
 endfacet
 facet normal -5.965878e-01  8.025478e-01 -3.680804e-04
   outer loop
     vertex -2.593603e-01  3.303517e-01  1.200000e+00
     vertex -2.323944e-01  3.498469e-01  0.000000e+00
     vertex -2.680384e-01  3.233503e-01  0.000000e+00
   endloop
 endfacet
 facet normal -5.747874e-01  8.183027e-01  3.777661e-04
   outer loop
     vertex -2.593603e-01  3.303517e-01  1.200000e+00
     vertex -2.227768e-01  3.560485e-01  1.200000e+00
     vertex -2.323944e-01  3.498469e-01  0.000000e+00
   endloop
 endfacet
 facet normal -6.780002e-01  7.350616e-01 -3.615526e-04
   outer loop
     vertex -2.930052e-01  3.009118e-01  1.200000e+00
     vertex -2.680384e-01  3.233503e-01  0.000000e+00
     vertex -3.006852e-01  2.932379e-01  0.000000e+00
   endloop
 endfacet
 facet normal -6.585113e-01  7.525707e-01  3.713237e-04
   outer loop
     vertex -2.930052e-01  3.009118e-01  1.200000e+00
     vertex -2.593603e-01  3.303517e-01  1.200000e+00
     vertex -2.680384e-01  3.233503e-01  0.000000e+00
   endloop
 endfacet
 facet normal -7.518310e-01  6.593558e-01 -3.548540e-04
   outer loop
     vertex -3.233303e-01  2.680626e-01  1.200000e+00
     vertex -3.006852e-01  2.932379e-01  0.000000e+00
     vertex -3.299695e-01  2.598463e-01  0.000000e+00
   endloop
 endfacet
 facet normal -7.347741e-01  6.783118e-01  3.647105e-04
   outer loop
     vertex -3.233303e-01  2.680626e-01  1.200000e+00
     vertex -2.930052e-01  3.009118e-01  1.200000e+00
     vertex -3.006852e-01  2.932379e-01  0.000000e+00
   endloop
 endfacet
 facet normal -8.172545e-01  5.762768e-01 -3.479847e-04
   outer loop
     vertex -3.499918e-01  2.321760e-01  1.200000e+00
     vertex -3.299695e-01  2.598463e-01  0.000000e+00
     vertex -3.555641e-01  2.235491e-01  0.000000e+00
   endloop
 endfacet
 facet normal -8.027116e-01  5.963673e-01  3.579266e-04
   outer loop
     vertex -3.499918e-01  2.321760e-01  1.200000e+00
     vertex -3.233303e-01  2.680626e-01  1.200000e+00
     vertex -3.299695e-01  2.598463e-01  0.000000e+00
   endloop
 endfacet
 facet normal -8.735392e-01  4.867537e-01 -3.409446e-04
   outer loop
     vertex -3.726879e-01  1.936589e-01  1.200000e+00
     vertex -3.555641e-01  2.235491e-01  0.000000e+00
     vertex -3.771825e-01  1.847521e-01  0.000000e+00
   endloop
 endfacet
 facet normal -8.615540e-01  5.076658e-01  3.509719e-04
   outer loop
     vertex -3.726879e-01  1.936589e-01  1.200000e+00
     vertex -3.499918e-01  2.321760e-01  1.200000e+00
     vertex -3.555641e-01  2.235491e-01  0.000000e+00
   endloop
 endfacet
 facet normal -9.200557e-01  3.917875e-01 -3.337337e-04
   outer loop
     vertex -3.911612e-01  1.529474e-01  1.200000e+00
     vertex -3.771825e-01  1.847521e-01  0.000000e+00
     vertex -3.945832e-01  1.438891e-01  0.000000e+00
   endloop
 endfacet
 facet normal -9.106347e-01  4.132122e-01  3.438464e-04
   outer loop
     vertex -3.911612e-01  1.529474e-01  1.200000e+00
     vertex -3.726879e-01  1.936589e-01  1.200000e+00
     vertex -3.771825e-01  1.847521e-01  0.000000e+00
   endloop
 endfacet
 facet normal -9.562838e-01  2.924402e-01 -3.263521e-04
   outer loop
     vertex -4.052025e-01  1.105031e-01  1.200000e+00
     vertex -3.945832e-01  1.438891e-01  0.000000e+00
     vertex -4.075716e-01  1.014171e-01  0.000000e+00
   endloop
 endfacet
 facet normal -9.493976e-01  3.140767e-01  3.365501e-04
   outer loop
     vertex -4.052025e-01  1.105031e-01  1.200000e+00
     vertex -3.911612e-01  1.529474e-01  1.200000e+00
     vertex -3.945832e-01  1.438891e-01  0.000000e+00
   endloop
 endfacet
 facet normal -9.818183e-01  1.898227e-01 -3.187997e-04
   outer loop
     vertex -4.146527e-01  6.680667e-02  1.200000e+00
     vertex -4.075716e-01  1.014171e-01  0.000000e+00
     vertex -4.160023e-01  5.781099e-02  0.000000e+00
   endloop
 endfacet
 facet normal -9.774033e-01  2.113826e-01  3.290831e-04
   outer loop
     vertex -4.146527e-01  6.680667e-02  1.200000e+00
     vertex -4.052025e-01  1.105031e-01  1.200000e+00
     vertex -4.075716e-01  1.014171e-01  0.000000e+00
   endloop
 endfacet
 facet normal -9.963739e-01  8.508261e-02 -3.110765e-04
   outer loop
     vertex -4.194047e-01  2.235331e-02  1.200000e+00
     vertex -4.160023e-01  5.781099e-02  0.000000e+00
     vertex -4.197811e-01  1.355843e-02  0.000000e+00
   endloop
 endfacet
 facet normal -9.943347e-01  1.062935e-01  3.214453e-04
   outer loop
     vertex -4.194047e-01  2.235331e-02  1.200000e+00
     vertex -4.146527e-01  6.680667e-02  1.200000e+00
     vertex -4.160023e-01  5.781099e-02  0.000000e+00
   endloop
 endfacet
 facet normal -9.997876e-01 -2.060895e-02 -3.031826e-04
   outer loop
     vertex -4.194047e-01 -2.235331e-02  1.200000e+00
     vertex -4.197811e-01  1.355843e-02  0.000000e+00
     vertex -4.188658e-01 -3.084574e-02  0.000000e+00
   endloop
 endfacet
 facet normal -1.000000e+00  1.241676e-15  3.136368e-04
   outer loop
     vertex -4.194047e-01 -2.235331e-02  1.200000e+00
     vertex -4.194047e-01  2.235331e-02  1.200000e+00
     vertex -4.197811e-01  1.355843e-02  0.000000e+00
   endloop
 endfacet
 facet normal -9.920213e-01 -1.260700e-01 -2.951179e-04
   outer loop
     vertex -4.146527e-01 -6.680667e-02  1.200000e+00
     vertex -4.188658e-01 -3.084574e-02  0.000000e+00
     vertex -4.132666e-01 -7.490498e-02  0.000000e+00
   endloop
 endfacet
 facet normal -9.943348e-01 -1.062935e-01  3.056575e-04
   outer loop
     vertex -4.146527e-01 -6.680667e-02  1.200000e+00
     vertex -4.194047e-01 -2.235331e-02  1.200000e+00
     vertex -4.188658e-01 -3.084574e-02  0.000000e+00
   endloop
 endfacet
 facet normal -9.731619e-01 -2.301214e-01 -2.868825e-04
   outer loop
     vertex -4.052025e-01 -1.105031e-01  1.200000e+00
     vertex -4.132666e-01 -7.490498e-02  0.000000e+00
     vertex -4.030460e-01 -1.181266e-01  0.000000e+00
   endloop
 endfacet
 facet normal -9.774033e-01 -2.113826e-01  2.975074e-04
   outer loop
     vertex -4.052025e-01 -1.105031e-01  1.200000e+00
     vertex -4.146527e-01 -6.680667e-02  1.200000e+00
     vertex -4.132666e-01 -7.490498e-02  0.000000e+00
   endloop
 endfacet
 facet normal -9.434202e-01 -3.315994e-01 -2.784763e-04
   outer loop
     vertex -3.911612e-01 -1.529474e-01  1.200000e+00
     vertex -4.030460e-01 -1.181266e-01  0.000000e+00
     vertex -3.883185e-01 -1.600273e-01  0.000000e+00
   endloop
 endfacet
 facet normal -9.493976e-01 -3.140767e-01  2.891866e-04
   outer loop
     vertex -3.911612e-01 -1.529474e-01  1.200000e+00
     vertex -4.052025e-01 -1.105031e-01  1.200000e+00
     vertex -4.030460e-01 -1.181266e-01  0.000000e+00
   endloop
 endfacet
 facet normal -9.031289e-01 -4.293694e-01 -2.698994e-04
   outer loop
     vertex -3.726879e-01 -1.936589e-01  1.200000e+00
     vertex -3.883185e-01 -1.600273e-01  0.000000e+00
     vertex -3.692487e-01 -2.001385e-01  0.000000e+00
   endloop
 endfacet
 facet normal -9.106347e-01 -4.132122e-01  2.806951e-04
   outer loop
     vertex -3.726879e-01 -1.936589e-01  1.200000e+00
     vertex -3.911612e-01 -1.529474e-01  1.200000e+00
     vertex -3.883185e-01 -1.600273e-01  0.000000e+00
   endloop
 endfacet
 facet normal -8.527385e-01 -5.223380e-01 -2.611518e-04
   outer loop
     vertex -3.499918e-01 -2.321760e-01  1.200000e+00
     vertex -3.692487e-01 -2.001385e-01  0.000000e+00
     vertex -3.460497e-01 -2.380117e-01  0.000000e+00
   endloop
 endfacet
 facet normal -8.615540e-01 -5.076658e-01  2.720328e-04
   outer loop
     vertex -3.499918e-01 -2.321760e-01  1.200000e+00
     vertex -3.726879e-01 -1.936589e-01  1.200000e+00
     vertex -3.692487e-01 -2.001385e-01  0.000000e+00
   endloop
 endfacet
 facet normal -7.928124e-01 -6.094657e-01 -2.522334e-04
   outer loop
     vertex -3.233303e-01 -2.680626e-01  1.200000e+00
     vertex -3.460497e-01 -2.380117e-01  0.000000e+00
     vertex -3.189812e-01 -2.732234e-01  0.000000e+00
   endloop
 endfacet
 facet normal -8.027116e-01 -5.963673e-01  2.631998e-04
   outer loop
     vertex -3.233303e-01 -2.680626e-01  1.200000e+00
     vertex -3.499918e-01 -2.321760e-01  1.200000e+00
     vertex -3.460497e-01 -2.380117e-01  0.000000e+00
   endloop
 endfacet
 facet normal -7.347741e-01 -6.783118e-01  2.541961e-04
   outer loop
     vertex -2.930052e-01 -3.009118e-01  1.200000e+00
     vertex -3.233303e-01 -2.680626e-01  1.200000e+00
     vertex -3.189812e-01 -2.732234e-01  0.000000e+00
   endloop
 endfacet
 facet normal -7.240209e-01 -6.897780e-01 -2.431443e-04
   outer loop
     vertex -2.930052e-01 -3.009118e-01  1.200000e+00
     vertex -3.189812e-01 -2.732234e-01  0.000000e+00
     vertex -2.883457e-01 -3.053797e-01  0.000000e+00
   endloop
 endfacet
 facet normal -6.585114e-01 -7.525707e-01  2.450216e-04
   outer loop
     vertex -2.593603e-01 -3.303517e-01  1.200000e+00
     vertex -2.930052e-01 -3.009118e-01  1.200000e+00
     vertex -2.883457e-01 -3.053797e-01  0.000000e+00
   endloop
 endfacet
 facet normal -6.471330e-01 -7.623771e-01 -2.338845e-04
   outer loop
     vertex -2.593603e-01 -3.303517e-01  1.200000e+00
     vertex -2.883457e-01 -3.053797e-01  0.000000e+00
     vertex -2.544857e-01 -3.341212e-01  0.000000e+00
   endloop
 endfacet
 facet normal -5.747874e-01 -8.183028e-01  2.356764e-04
   outer loop
     vertex -2.227768e-01 -3.560485e-01  1.200000e+00
     vertex -2.593603e-01 -3.303517e-01  1.200000e+00
     vertex -2.544857e-01 -3.341212e-01  0.000000e+00
   endloop
 endfacet
 facet normal -5.630087e-01 -8.264509e-01 -2.244539e-04
   outer loop
     vertex -2.227768e-01 -3.560485e-01  1.200000e+00
     vertex -2.544857e-01 -3.341212e-01  0.000000e+00
     vertex -2.177801e-01 -3.591265e-01  0.000000e+00
   endloop
 endfacet
 facet normal -4.845509e-01 -8.747631e-01  2.261605e-04
   outer loop
     vertex -1.836691e-01 -3.777111e-01  1.200000e+00
     vertex -2.227768e-01 -3.560485e-01  1.200000e+00
     vertex -2.177801e-01 -3.591265e-01  0.000000e+00
   endloop
 endfacet
 facet normal -4.725886e-01 -8.812831e-01 -2.148527e-04
   outer loop
     vertex -1.836691e-01 -3.777111e-01  1.200000e+00
     vertex -2.177801e-01 -3.591265e-01  0.000000e+00
     vertex -1.786391e-01 -3.801159e-01  0.000000e+00
   endloop
 endfacet
 facet normal -2.810383e-01 -9.596953e-01 -1.524743e-03
   outer loop
     vertex -1.096729e-01 -4.054280e-01  2.670427e-01
     vertex -1.114719e-01 -4.049370e-01  2.896304e-01
     vertex -1.375005e-01 -3.968546e-01  0.000000e+00
   endloop
 endfacet
 facet normal -2.769642e-01 -9.608782e-01 -1.987273e-03
   outer loop
     vertex -9.482440e-02 -4.091556e-01  0.000000e+00
     vertex -1.096729e-01 -4.054280e-01  2.670427e-01
     vertex -1.375005e-01 -3.968546e-01  0.000000e+00
   endloop
 endfacet
 facet normal -2.559576e-01 -9.666877e-01 -7.381376e-04
   outer loop
     vertex -1.033367e-01 -4.070891e-01  2.453216e-01
     vertex -1.096729e-01 -4.054280e-01  2.670427e-01
     vertex -9.482440e-02 -4.091556e-01  0.000000e+00
   endloop
 endfacet
 facet normal -3.888242e-01 -9.213120e-01  2.164739e-04
   outer loop
     vertex -1.424803e-01 -3.950941e-01  1.200000e+00
     vertex -1.836691e-01 -3.777111e-01  1.200000e+00
     vertex -1.786391e-01 -3.801159e-01  0.000000e+00
   endloop
 endfacet
 facet normal -2.982043e-01 -9.545020e-01  1.628582e-04
   outer loop
     vertex -1.424803e-01 -3.950941e-01  1.200000e+00
     vertex -1.375005e-01 -3.968546e-01  0.000000e+00
     vertex -1.114719e-01 -4.049370e-01  2.896304e-01
   endloop
 endfacet
 facet normal -3.768839e-01 -9.262605e-01 -2.050807e-04
   outer loop
     vertex -1.424803e-01 -3.950941e-01  1.200000e+00
     vertex -1.786391e-01 -3.801159e-01  0.000000e+00
     vertex -1.375005e-01 -3.968546e-01  0.000000e+00
   endloop
 endfacet
 facet normal -2.718725e-01 -9.623326e-01  1.144420e-03
   outer loop
     vertex -1.424803e-01 -3.950941e-01  1.200000e+00
     vertex -1.114719e-01 -4.049370e-01  2.896304e-01
     vertex -1.091263e-01 -4.055754e-01  3.100345e-01
   endloop
 endfacet
 facet normal -2.331670e-01 -9.724367e-01  1.010881e-04
   outer loop
     vertex -9.265683e-02 -4.096520e-01  2.252601e-01
     vertex -1.033367e-01 -4.070891e-01  2.453216e-01
     vertex -9.482440e-02 -4.091556e-01  0.000000e+00
   endloop
 endfacet
 facet normal -2.034182e-01 -9.790919e-01 -1.998345e-04
   outer loop
     vertex -7.799505e-02 -4.126945e-01  2.077032e-01
     vertex -9.265683e-02 -4.096520e-01  2.252601e-01
     vertex -9.482440e-02 -4.091556e-01  0.000000e+00
   endloop
 endfacet
 facet normal -1.739478e-01 -9.847512e-01 -2.684125e-03
   outer loop
     vertex -5.108789e-02 -4.168813e-01  0.000000e+00
     vertex -7.799505e-02 -4.126945e-01  2.077032e-01
     vertex -9.482440e-02 -4.091556e-01  0.000000e+00
   endloop
 endfacet
 facet normal -1.654645e-01 -9.862145e-01 -1.555647e-03
   outer loop
     vertex -5.995989e-02 -4.156980e-01  1.934771e-01
     vertex -7.799505e-02 -4.126945e-01  2.077032e-01
     vertex -5.108789e-02 -4.168813e-01  0.000000e+00
   endloop
 endfacet
 facet normal -2.886919e-01 -9.574219e-01  4.562283e-04
   outer loop
     vertex -9.967721e-02 -4.080006e-01  1.200000e+00
     vertex -1.424803e-01 -3.950941e-01  1.200000e+00
     vertex -1.091263e-01 -4.055754e-01  3.100345e-01
   endloop
 endfacet
 facet normal -2.069548e-01 -9.783505e-01  1.793737e-04
   outer loop
     vertex -9.967721e-02 -4.080006e-01  1.200000e+00
     vertex -9.331374e-02 -4.095028e-01  3.483102e-01
     vertex -8.032470e-02 -4.122474e-01  3.647010e-01
   endloop
 endfacet
 facet normal -2.336984e-01 -9.723091e-01 -3.109899e-05
   outer loop
     vertex -9.967721e-02 -4.080006e-01  1.200000e+00
     vertex -1.030267e-01 -4.071677e-01  3.298375e-01
     vertex -9.331374e-02 -4.095028e-01  3.483102e-01
   endloop
 endfacet
 facet normal -2.527136e-01 -9.675411e-01  4.665903e-05
   outer loop
     vertex -9.967721e-02 -4.080006e-01  1.200000e+00
     vertex -1.091263e-01 -4.055754e-01  3.100345e-01
     vertex -1.030267e-01 -4.071677e-01  3.298375e-01
   endloop
 endfacet
 facet normal -1.179905e-01 -9.930145e-01  6.628857e-04
   outer loop
     vertex -3.939475e-02 -4.181484e-01  1.832546e-01
     vertex -5.995989e-02 -4.156980e-01  1.934771e-01
     vertex -5.108789e-02 -4.168813e-01  0.000000e+00
   endloop
 endfacet
 facet normal -7.137722e-02 -9.974466e-01 -2.342071e-03
   outer loop
     vertex -2.000773e-02 -4.195232e-01  1.779182e-01
     vertex -3.939475e-02 -4.181484e-01  1.832546e-01
     vertex -5.108789e-02 -4.168813e-01  0.000000e+00
   endloop
 endfacet
 facet normal -6.898670e-02 -9.976138e-01 -2.762147e-03
   outer loop
     vertex -6.780101e-03 -4.199453e-01  0.000000e+00
     vertex -2.000773e-02 -4.195232e-01  1.779182e-01
     vertex -5.108789e-02 -4.168813e-01  0.000000e+00
   endloop
 endfacet
 facet normal -1.252768e-01 -9.921218e-01 -1.358977e-04
   outer loop
     vertex -5.574472e-02 -4.162842e-01  1.200000e+00
     vertex -6.269843e-02 -4.152938e-01  3.796712e-01
     vertex -4.256500e-02 -4.178375e-01  3.906087e-01
   endloop
 endfacet
 facet normal -1.705158e-01 -9.853549e-01  2.557509e-04
   outer loop
     vertex -5.574472e-02 -4.162842e-01  1.200000e+00
     vertex -8.032470e-02 -4.122474e-01  3.647010e-01
     vertex -6.269843e-02 -4.152938e-01  3.796712e-01
   endloop
 endfacet
 facet normal -1.852887e-01 -9.826839e-01  7.033755e-04
   outer loop
     vertex -5.574472e-02 -4.162842e-01  1.200000e+00
     vertex -9.967721e-02 -4.080006e-01  1.200000e+00
     vertex -8.032470e-02 -4.122474e-01  3.647010e-01
   endloop
 endfacet
 facet normal -2.377141e-02 -9.997172e-01  6.044517e-04
   outer loop
     vertex -1.084425e-17 -4.200000e-01  1.761241e-01
     vertex -2.000773e-02 -4.195232e-01  1.779182e-01
     vertex -6.780101e-03 -4.199453e-01  0.000000e+00
   endloop
 endfacet
 facet normal  2.715311e-02 -9.996304e-01 -1.355919e-03
   outer loop
     vertex  2.268435e-02 -4.193870e-01  1.784359e-01
     vertex -1.084425e-17 -4.200000e-01  1.761241e-01
     vertex -6.780101e-03 -4.199453e-01  0.000000e+00
   endloop
 endfacet
 facet normal  3.674577e-02 -9.993203e-01 -2.940890e-03
   outer loop
     vertex  3.760351e-02 -4.183133e-01  0.000000e+00
     vertex  2.268435e-02 -4.193870e-01  1.784359e-01
     vertex -6.780101e-03 -4.199453e-01  0.000000e+00
   endloop
 endfacet
 facet normal -7.978609e-02 -9.968118e-01  6.138503e-04
   outer loop
     vertex -1.118062e-02 -4.198512e-01  1.200000e+00
     vertex -5.574472e-02 -4.162842e-01  1.200000e+00
     vertex -4.256500e-02 -4.178375e-01  3.906087e-01
   endloop
 endfacet
 facet normal -2.271478e-02 -9.997420e-01 -1.846509e-04
   outer loop
     vertex -1.118062e-02 -4.198512e-01  1.200000e+00
     vertex -2.081236e-02 -4.194840e-01  3.971475e-01
     vertex  1.725043e-03 -4.199965e-01  3.991107e-01
   endloop
 endfacet
 facet normal -7.561027e-02 -9.971373e-01  4.511217e-04
   outer loop
     vertex -1.118062e-02 -4.198512e-01  1.200000e+00
     vertex -4.256500e-02 -4.178375e-01  3.906087e-01
     vertex -2.081236e-02 -4.194840e-01  3.971475e-01
   endloop
 endfacet
 facet normal  7.975235e-02 -9.968145e-01  6.700002e-04
   outer loop
     vertex  4.446105e-02 -4.176401e-01  1.852946e-01
     vertex  2.268435e-02 -4.193870e-01  1.784359e-01
     vertex  3.760351e-02 -4.183133e-01  0.000000e+00
   endloop
 endfacet
 facet normal  1.304331e-01 -9.914564e-01 -1.225103e-03
   outer loop
     vertex  6.450503e-02 -4.150170e-01  1.965134e-01
     vertex  4.446105e-02 -4.176401e-01  1.852946e-01
     vertex  3.760351e-02 -4.183133e-01  0.000000e+00
   endloop
 endfacet
 facet normal  1.420673e-01 -9.898529e-01 -2.844659e-03
   outer loop
     vertex  8.156662e-02 -4.120035e-01  0.000000e+00
     vertex  6.450503e-02 -4.150170e-01  1.965134e-01
     vertex  3.760351e-02 -4.183133e-01  0.000000e+00
   endloop
 endfacet
 facet normal  1.725121e-01 -9.850074e-01 -1.270935e-04
   outer loop
     vertex  8.029027e-02 -4.122541e-01  2.100021e-01
     vertex  6.450503e-02 -4.150170e-01  1.965134e-01
     vertex  8.156662e-02 -4.120035e-01  0.000000e+00
   endloop
 endfacet
 facet normal  2.662052e-02 -9.996454e-01  6.103287e-04
   outer loop
     vertex  3.351016e-02 -4.186610e-01  1.200000e+00
     vertex -1.118062e-02 -4.198512e-01  1.200000e+00
     vertex  1.725043e-03 -4.199965e-01  3.991107e-01
   endloop
 endfacet
 facet normal  1.212377e-01 -9.926235e-01  3.228262e-04
   outer loop
     vertex  3.351016e-02 -4.186610e-01  1.200000e+00
     vertex  4.166000e-02 -4.179287e-01  3.909809e-01
     vertex  6.001702e-02 -4.156897e-01  3.814516e-01
   endloop
 endfacet
 facet normal  7.577439e-02 -9.971250e-01 -1.392332e-04
   outer loop
     vertex  3.351016e-02 -4.186610e-01  1.200000e+00
     vertex  2.200740e-02 -4.194230e-01  3.969117e-01
     vertex  4.166000e-02 -4.179287e-01  3.909809e-01
   endloop
 endfacet
 facet normal  2.831969e-02 -9.995988e-01  5.428152e-04
   outer loop
     vertex  3.351016e-02 -4.186610e-01  1.200000e+00
     vertex  1.725043e-03 -4.199965e-01  3.991107e-01
     vertex  2.200740e-02 -4.194230e-01  3.969117e-01
   endloop
 endfacet
 facet normal  2.065611e-01 -9.784337e-01  8.769533e-05
   outer loop
     vertex  9.328765e-02 -4.095088e-01  2.262083e-01
     vertex  8.029027e-02 -4.122541e-01  2.100021e-01
     vertex  8.156662e-02 -4.120035e-01  0.000000e+00
   endloop
 endfacet
 facet normal  2.364159e-01 -9.716507e-01 -1.534047e-03
   outer loop
     vertex  1.029937e-01 -4.071760e-01  2.444879e-01
     vertex  9.328765e-02 -4.095088e-01  2.262083e-01
     vertex  8.156662e-02 -4.120035e-01  0.000000e+00
   endloop
 endfacet
 facet normal  2.566341e-01 -9.665076e-01 -1.374423e-03
   outer loop
     vertex  1.246176e-01 -4.010866e-01  0.000000e+00
     vertex  1.090977e-01 -4.055831e-01  2.641300e-01
     vertex  1.029937e-01 -4.071760e-01  2.444879e-01
   endloop
 endfacet
 facet normal  2.458005e-01 -9.693175e-01 -2.402591e-03
   outer loop
     vertex  1.246176e-01 -4.010866e-01  0.000000e+00
     vertex  1.029937e-01 -4.071760e-01  2.444879e-01
     vertex  8.156662e-02 -4.120035e-01  0.000000e+00
   endloop
 endfacet
 facet normal  2.678656e-01 -9.634561e-01 -6.625267e-04
   outer loop
     vertex  1.114678e-01 -4.049382e-01  2.844492e-01
     vertex  1.090977e-01 -4.055831e-01  2.641300e-01
     vertex  1.246176e-01 -4.010866e-01  0.000000e+00
   endloop
 endfacet
 facet normal  2.033248e-01 -9.791113e-01  4.888635e-06
   outer loop
     vertex  7.782126e-02 -4.127273e-01  1.200000e+00
     vertex  7.804221e-02 -4.126856e-01  3.670183e-01
     vertex  9.271857e-02 -4.096380e-01  3.492151e-01
   endloop
 endfacet
 facet normal  1.643911e-01 -9.863952e-01 -5.803473e-06
   outer loop
     vertex  7.782126e-02 -4.127273e-01  1.200000e+00
     vertex  6.001702e-02 -4.156897e-01  3.814516e-01
     vertex  7.804221e-02 -4.126856e-01  3.670183e-01
   endloop
 endfacet
 facet normal  1.327255e-01 -9.911526e-01  7.001721e-04
   outer loop
     vertex  7.782126e-02 -4.127273e-01  1.200000e+00
     vertex  3.351016e-02 -4.186610e-01  1.200000e+00
     vertex  6.001702e-02 -4.156897e-01  3.814516e-01
   endloop
 endfacet
 facet normal  2.649718e-01 -9.642562e-01  1.397189e-04
   outer loop
     vertex  1.212506e-01 -4.021173e-01  1.200000e+00
     vertex  1.097071e-01 -4.054187e-01  3.070596e-01
     vertex  1.114678e-01 -4.049382e-01  2.844492e-01
   endloop
 endfacet
 facet normal  2.546258e-01 -9.670396e-01  2.837581e-04
   outer loop
     vertex  1.212506e-01 -4.021173e-01  1.200000e+00
     vertex  1.033978e-01 -4.070736e-01  3.289262e-01
     vertex  1.097071e-01 -4.054187e-01  3.070596e-01
   endloop
 endfacet
 facet normal  2.347822e-01 -9.720477e-01  7.189503e-04
   outer loop
     vertex  1.212506e-01 -4.021173e-01  1.200000e+00
     vertex  9.271857e-02 -4.096380e-01  3.492151e-01
     vertex  1.033978e-01 -4.070736e-01  3.289262e-01
   endloop
 endfacet
 facet normal  2.373267e-01 -9.714297e-01  6.281569e-04
   outer loop
     vertex  1.212506e-01 -4.021173e-01  1.200000e+00
     vertex  7.782126e-02 -4.127273e-01  1.200000e+00
     vertex  9.271857e-02 -4.096380e-01  3.492151e-01
   endloop
 endfacet
 facet normal  3.070839e-01 -9.516815e-01  1.309933e-03
   outer loop
     vertex  1.633062e-01 -3.869510e-01  1.200000e+00
     vertex  1.114678e-01 -4.049382e-01  2.844492e-01
     vertex  1.246176e-01 -4.010866e-01  0.000000e+00
   endloop
 endfacet
 facet normal  3.392388e-01 -9.407000e-01 -7.264166e-04
   outer loop
     vertex  1.633062e-01 -3.869510e-01  1.200000e+00
     vertex  1.212506e-01 -4.021173e-01  1.200000e+00
     vertex  1.114678e-01 -4.049382e-01  2.844492e-01
   endloop
 endfacet
 facet normal  3.467859e-01 -9.379443e-01 -1.318975e-04
   outer loop
     vertex  1.633062e-01 -3.869510e-01  1.200000e+00
     vertex  1.246176e-01 -4.010866e-01  0.000000e+00
     vertex  1.662751e-01 -3.856846e-01  0.000000e+00
   endloop
 endfacet
 facet normal  4.373073e-01 -8.993121e-01  1.328360e-04
   outer loop
     vertex  2.035114e-01 -3.674005e-01  1.200000e+00
     vertex  1.633062e-01 -3.869510e-01  1.200000e+00
     vertex  1.662751e-01 -3.856846e-01  0.000000e+00
   endloop
 endfacet
 facet normal  4.438928e-01 -8.960799e-01 -1.207601e-04
   outer loop
     vertex  2.035114e-01 -3.674005e-01  1.200000e+00
     vertex  1.662751e-01 -3.856846e-01  0.000000e+00
     vertex  2.060733e-01 -3.659697e-01  0.000000e+00
   endloop
 endfacet
 facet normal  5.304209e-01 -8.477344e-01  1.216132e-04
   outer loop
     vertex  2.414107e-01 -3.436872e-01  1.200000e+00
     vertex  2.035114e-01 -3.674005e-01  1.200000e+00
     vertex  2.060733e-01 -3.659697e-01  0.000000e+00
   endloop
 endfacet
 facet normal  5.360358e-01 -8.441952e-01 -1.094520e-04
   outer loop
     vertex  2.414107e-01 -3.436872e-01  1.200000e+00
     vertex  2.060733e-01 -3.659697e-01  0.000000e+00
     vertex  2.435670e-01 -3.421624e-01  0.000000e+00
   endloop
 endfacet
 facet normal  6.175246e-01 -7.865516e-01  1.102198e-04
   outer loop
     vertex  2.765748e-01 -3.160797e-01  1.200000e+00
     vertex  2.414107e-01 -3.436872e-01  1.200000e+00
     vertex  2.435670e-01 -3.421624e-01  0.000000e+00
   endloop
 endfacet
 facet normal  6.221847e-01 -7.828705e-01 -9.797319e-05
   outer loop
     vertex  2.765748e-01 -3.160797e-01  1.200000e+00
     vertex  2.435670e-01 -3.421624e-01  0.000000e+00
     vertex  2.783371e-01 -3.145289e-01  0.000000e+00
   endloop
 endfacet
 facet normal  6.976315e-01 -7.164567e-01  9.865570e-05
   outer loop
     vertex  3.086051e-01 -2.848910e-01  1.200000e+00
     vertex  2.765748e-01 -3.160797e-01  1.200000e+00
     vertex  2.783371e-01 -3.145289e-01  0.000000e+00
   endloop
 endfacet
 facet normal  7.013761e-01 -7.127914e-01 -8.632376e-05
   outer loop
     vertex  3.086051e-01 -2.848910e-01  1.200000e+00
     vertex  2.783371e-01 -3.145289e-01  0.000000e+00
     vertex  3.099947e-01 -2.833783e-01  0.000000e+00
   endloop
 endfacet
 facet normal  7.698340e-01 -6.382442e-01  8.692095e-05
   outer loop
     vertex  3.371389e-01 -2.504743e-01  1.200000e+00
     vertex  3.086051e-01 -2.848910e-01  1.200000e+00
     vertex  3.099947e-01 -2.833783e-01  0.000000e+00
   endloop
 endfacet
 facet normal  7.727245e-01 -6.347416e-01 -7.450369e-05
   outer loop
     vertex  3.371389e-01 -2.504743e-01  1.200000e+00
     vertex  3.099947e-01 -2.833783e-01  0.000000e+00
     vertex  3.381859e-01 -2.490588e-01  0.000000e+00
   endloop
 endfacet
 facet normal  8.333139e-01 -5.528001e-01  7.501555e-05
   outer loop
     vertex  3.618527e-01 -2.132196e-01  1.200000e+00
     vertex  3.371389e-01 -2.504743e-01  1.200000e+00
     vertex  3.381859e-01 -2.490588e-01  0.000000e+00
   endloop
 endfacet
 facet normal  8.354320e-01 -5.495939e-01 -6.251297e-05
   outer loop
     vertex  3.618527e-01 -2.132196e-01  1.200000e+00
     vertex  3.381859e-01 -2.490588e-01  0.000000e+00
     vertex  3.625953e-01 -2.119543e-01  0.000000e+00
   endloop
 endfacet
 facet normal  8.873521e-01 -4.610925e-01  6.293952e-05
   outer loop
     vertex  3.824666e-01 -1.735491e-01  1.200000e+00
     vertex  3.618527e-01 -2.132196e-01  1.200000e+00
     vertex  3.625953e-01 -2.119543e-01  0.000000e+00
   endloop
 endfacet
 facet normal  8.887973e-01 -4.583004e-01 -5.035162e-05
   outer loop
     vertex  3.824666e-01 -1.735491e-01  1.200000e+00
     vertex  3.625953e-01 -2.119543e-01  0.000000e+00
     vertex  3.829501e-01 -1.724796e-01  0.000000e+00
   endloop
 endfacet
 facet normal  9.313362e-01 -3.641606e-01  5.069285e-05
   outer loop
     vertex  3.987470e-01 -1.319122e-01  1.200000e+00
     vertex  3.824666e-01 -1.735491e-01  1.200000e+00
     vertex  3.829501e-01 -1.724796e-01  0.000000e+00
   endloop
 endfacet
 facet normal  9.322239e-01 -3.618821e-01 -3.801965e-05
   outer loop
     vertex  3.987470e-01 -1.319122e-01  1.200000e+00
     vertex  3.829501e-01 -1.724796e-01  0.000000e+00
     vertex  3.990226e-01 -1.310762e-01  0.000000e+00
   endloop
 endfacet
 facet normal  9.647679e-01 -2.631026e-01  3.827556e-05
   outer loop
     vertex  4.105094e-01 -8.878070e-02  1.200000e+00
     vertex  3.987470e-01 -1.319122e-01  1.200000e+00
     vertex  3.990226e-01 -1.310762e-01  0.000000e+00
   endloop
 endfacet
 facet normal  9.652259e-01 -2.614171e-01 -2.551704e-05
   outer loop
     vertex  4.105094e-01 -8.878070e-02  1.200000e+00
     vertex  3.990226e-01 -1.310762e-01  0.000000e+00
     vertex  4.106331e-01 -8.820700e-02  0.000000e+00
   endloop
 endfacet
 facet normal  9.872684e-01 -1.590635e-01  2.568765e-05
   outer loop
     vertex  4.176206e-01 -4.464326e-02  1.200000e+00
     vertex  4.105094e-01 -8.878070e-02  1.200000e+00
     vertex  4.106331e-01 -8.820700e-02  0.000000e+00
   endloop
 endfacet
 facet normal  9.874345e-01 -1.580288e-01 -1.284383e-05
   outer loop
     vertex  4.176206e-01 -4.464326e-02  1.200000e+00
     vertex  4.106331e-01 -8.820700e-02  0.000000e+00
     vertex  4.176517e-01 -4.435148e-02  0.000000e+00
   endloop
 endfacet
 facet normal  9.986012e-01 -5.287334e-02  0.000000e+00
   outer loop
     vertex  4.200000e-01 -1.028703e-16  1.200000e+00
     vertex  4.176517e-01 -4.435148e-02  0.000000e+00
     vertex  4.200000e-01 -1.028703e-16  0.000000e+00
   endloop
 endfacet
 facet normal  9.985827e-01 -5.322217e-02  1.292913e-05
   outer loop
     vertex  4.200000e-01 -1.028703e-16  1.200000e+00
     vertex  4.176206e-01 -4.464326e-02  1.200000e+00
     vertex  4.176517e-01 -4.435148e-02  0.000000e+00
   endloop
 endfacet
 facet normal  1.375955e-01  9.904747e-01  5.229902e-03
   outer loop
     vertex  4.778172e-02  4.172732e-01  6.746581e-03
     vertex  6.991666e-02  4.141397e-01  1.783733e-02
     vertex  6.619210e-02  4.147513e-01  0.000000e+00
   endloop
 endfacet
 facet normal  2.642318e-01  9.644590e-01  5.642488e-04
   outer loop
     vertex  1.052033e-01  4.066107e-01  4.997706e-02
     vertex  1.174187e-01  4.032528e-01  6.919744e-02
     vertex  1.076310e-01  4.059748e-01  0.000000e+00
   endloop
 endfacet
 facet normal -2.577862e-01  9.662016e-01  8.884485e-04
   outer loop
     vertex -1.158195e-01  4.037150e-01  6.622292e-02
     vertex -1.017061e-01  4.074995e-01  4.558778e-02
     vertex -1.116048e-01  4.049004e-01  0.000000e+00
   endloop
 endfacet
 facet normal -1.712557e-01  9.852100e-01  5.715856e-03
   outer loop
     vertex -8.387983e-02  4.115388e-01  2.786813e-02
     vertex -6.306869e-02  4.152377e-01  1.384163e-02
     vertex -6.822382e-02  4.144219e-01  0.000000e+00
   endloop
 endfacet
 facet normal  0.000000e+00  0.000000e+00 -1.000000e+00
   outer loop
     vertex -1.921389e-03  3.007533e-01  0.000000e+00
     vertex -3.299695e-01  2.598463e-01  0.000000e+00
     vertex -3.006852e-01  2.932379e-01  0.000000e+00
   endloop
 endfacet
 facet normal  0.000000e+00  0.000000e+00 -1.000000e+00
   outer loop
     vertex -1.921389e-03  3.007533e-01  0.000000e+00
     vertex -3.555641e-01  2.235491e-01  0.000000e+00
     vertex -3.299695e-01  2.598463e-01  0.000000e+00
   endloop
 endfacet
 facet normal  0.000000e+00  0.000000e+00 -1.000000e+00
   outer loop
     vertex -3.007839e-03  3.018463e-01  0.000000e+00
     vertex -2.680384e-01  3.233503e-01  0.000000e+00
     vertex -2.323944e-01  3.498469e-01  0.000000e+00
   endloop
 endfacet
 facet normal -0.000000e+00  0.000000e+00 -1.000000e+00
   outer loop
     vertex -3.007839e-03  3.018463e-01  0.000000e+00
     vertex -3.006852e-01  2.932379e-01  0.000000e+00
     vertex -2.680384e-01  3.233503e-01  0.000000e+00
   endloop
 endfacet
 facet normal  0.000000e+00 -0.000000e+00 -1.000000e+00
   outer loop
     vertex -3.007839e-03  3.018463e-01  0.000000e+00
     vertex -1.921389e-03  3.007533e-01  0.000000e+00
     vertex -3.006852e-01  2.932379e-01  0.000000e+00
   endloop
 endfacet
 facet normal  0.000000e+00  0.000000e+00 -1.000000e+00
   outer loop
     vertex -1.145887e-03  3.002679e-01  0.000000e+00
     vertex -3.771825e-01  1.847521e-01  0.000000e+00
     vertex -3.555641e-01  2.235491e-01  0.000000e+00
   endloop
 endfacet
 facet normal  0.000000e+00  0.000000e+00 -1.000000e+00
   outer loop
     vertex -1.145887e-03  3.002679e-01  0.000000e+00
     vertex -3.945832e-01  1.438891e-01  0.000000e+00
     vertex -3.771825e-01  1.847521e-01  0.000000e+00
   endloop
 endfacet
 facet normal  0.000000e+00  0.000000e+00 -1.000000e+00
   outer loop
     vertex -1.145887e-03  3.002679e-01  0.000000e+00
     vertex -4.075716e-01  1.014171e-01  0.000000e+00
     vertex -3.945832e-01  1.438891e-01  0.000000e+00
   endloop
 endfacet
 facet normal  0.000000e+00  0.000000e+00 -1.000000e+00
   outer loop
     vertex -1.145887e-03  3.002679e-01  0.000000e+00
     vertex -4.160023e-01  5.781099e-02  0.000000e+00
     vertex -4.075716e-01  1.014171e-01  0.000000e+00
   endloop
 endfacet
 facet normal  0.000000e+00  0.000000e+00 -1.000000e+00
   outer loop
     vertex -1.145887e-03  3.002679e-01  0.000000e+00
     vertex -4.197811e-01  1.355843e-02  0.000000e+00
     vertex -4.160023e-01  5.781099e-02  0.000000e+00
   endloop
 endfacet
 facet normal -0.000000e+00  0.000000e+00 -1.000000e+00
   outer loop
     vertex -1.145887e-03  3.002679e-01  0.000000e+00
     vertex -3.555641e-01  2.235491e-01  0.000000e+00
     vertex -1.921389e-03  3.007533e-01  0.000000e+00
   endloop
 endfacet
 facet normal  0.000000e+00  0.000000e+00 -1.000000e+00
   outer loop
     vertex -5.734765e-04  3.000671e-01  0.000000e+00
     vertex -4.188658e-01 -3.084574e-02  0.000000e+00
     vertex -4.197811e-01  1.355843e-02  0.000000e+00
   endloop
 endfacet
 facet normal  0.000000e+00  0.000000e+00 -1.000000e+00
   outer loop
     vertex -5.734765e-04  3.000671e-01  0.000000e+00
     vertex -4.132666e-01 -7.490498e-02  0.000000e+00
     vertex -4.188658e-01 -3.084574e-02  0.000000e+00
   endloop
 endfacet
 facet normal  0.000000e+00  0.000000e+00 -1.000000e+00
   outer loop
     vertex -5.734765e-04  3.000671e-01  0.000000e+00
     vertex -4.030460e-01 -1.181266e-01  0.000000e+00
     vertex -4.132666e-01 -7.490498e-02  0.000000e+00
   endloop
 endfacet
 facet normal  0.000000e+00  0.000000e+00 -1.000000e+00
   outer loop
     vertex -5.734765e-04  3.000671e-01  0.000000e+00
     vertex -3.883185e-01 -1.600273e-01  0.000000e+00
     vertex -4.030460e-01 -1.181266e-01  0.000000e+00
   endloop
 endfacet
 facet normal  0.000000e+00  0.000000e+00 -1.000000e+00
   outer loop
     vertex -5.734765e-04  3.000671e-01  0.000000e+00
     vertex -3.692487e-01 -2.001385e-01  0.000000e+00
     vertex -3.883185e-01 -1.600273e-01  0.000000e+00
   endloop
 endfacet
 facet normal  0.000000e+00  0.000000e+00 -1.000000e+00
   outer loop
     vertex -5.734765e-04  3.000671e-01  0.000000e+00
     vertex -3.460497e-01 -2.380117e-01  0.000000e+00
     vertex -3.692487e-01 -2.001385e-01  0.000000e+00
   endloop
 endfacet
 facet normal  0.000000e+00  0.000000e+00 -1.000000e+00
   outer loop
     vertex -5.734765e-04  3.000671e-01  0.000000e+00
     vertex -3.189812e-01 -2.732234e-01  0.000000e+00
     vertex -3.460497e-01 -2.380117e-01  0.000000e+00
   endloop
 endfacet
 facet normal  0.000000e+00  0.000000e+00 -1.000000e+00
   outer loop
     vertex -5.734765e-04  3.000671e-01  0.000000e+00
     vertex -2.883457e-01 -3.053797e-01  0.000000e+00
     vertex -3.189812e-01 -2.732234e-01  0.000000e+00
   endloop
 endfacet
 facet normal  0.000000e+00  0.000000e+00 -1.000000e+00
   outer loop
     vertex -5.734765e-04  3.000671e-01  0.000000e+00
     vertex -2.544857e-01 -3.341212e-01  0.000000e+00
     vertex -2.883457e-01 -3.053797e-01  0.000000e+00
   endloop
 endfacet
 facet normal -0.000000e+00  0.000000e+00 -1.000000e+00
   outer loop
     vertex -5.734765e-04  3.000671e-01  0.000000e+00
     vertex -4.197811e-01  1.355843e-02  0.000000e+00
     vertex -1.145887e-03  3.002679e-01  0.000000e+00
   endloop
 endfacet
 facet normal -0.000000e+00  0.000000e+00 -1.000000e+00
   outer loop
     vertex -6.144303e-18  3.000000e-01  0.000000e+00
     vertex -2.544857e-01 -3.341212e-01  0.000000e+00
     vertex -5.734765e-04  3.000671e-01  0.000000e+00
   endloop
 endfacet
 facet normal  0.000000e+00  0.000000e+00 -1.000000e+00
   outer loop
     vertex -6.144303e-18  3.000000e-01  0.000000e+00
     vertex -2.177801e-01 -3.591265e-01  0.000000e+00
     vertex -2.544857e-01 -3.341212e-01  0.000000e+00
   endloop
 endfacet
 facet normal  0.000000e+00  0.000000e+00 -1.000000e+00
   outer loop
     vertex -6.144303e-18  3.000000e-01  0.000000e+00
     vertex -1.786391e-01 -3.801159e-01  0.000000e+00
     vertex -2.177801e-01 -3.591265e-01  0.000000e+00
   endloop
 endfacet
 facet normal  0.000000e+00  0.000000e+00 -1.000000e+00
   outer loop
     vertex -6.144303e-18  3.000000e-01  0.000000e+00
     vertex -1.375005e-01 -3.968546e-01  0.000000e+00
     vertex -1.786391e-01 -3.801159e-01  0.000000e+00
   endloop
 endfacet
 facet normal  0.000000e+00  0.000000e+00 -1.000000e+00
   outer loop
     vertex -6.144303e-18  3.000000e-01  0.000000e+00
     vertex -9.482440e-02 -4.091556e-01  0.000000e+00
     vertex -1.375005e-01 -3.968546e-01  0.000000e+00
   endloop
 endfacet
 facet normal  0.000000e+00  0.000000e+00 -1.000000e+00
   outer loop
     vertex -6.144303e-18  3.000000e-01  0.000000e+00
     vertex -5.108789e-02 -4.168813e-01  0.000000e+00
     vertex -9.482440e-02 -4.091556e-01  0.000000e+00
   endloop
 endfacet
 facet normal  0.000000e+00  0.000000e+00 -1.000000e+00
   outer loop
     vertex -6.144303e-18  3.000000e-01  0.000000e+00
     vertex -6.780101e-03 -4.199453e-01  0.000000e+00
     vertex -5.108789e-02 -4.168813e-01  0.000000e+00
   endloop
 endfacet
 facet normal  0.000000e+00 -0.000000e+00 -1.000000e+00
   outer loop
     vertex -6.144303e-18  3.000000e-01  0.000000e+00
     vertex  3.760351e-02 -4.183133e-01  0.000000e+00
     vertex -6.780101e-03 -4.199453e-01  0.000000e+00
   endloop
 endfacet
 facet normal  0.000000e+00  0.000000e+00 -1.000000e+00
   outer loop
     vertex -6.144303e-18  3.000000e-01  0.000000e+00
     vertex  8.156662e-02 -4.120035e-01  0.000000e+00
     vertex  3.760351e-02 -4.183133e-01  0.000000e+00
   endloop
 endfacet
 facet normal  0.000000e+00  0.000000e+00 -1.000000e+00
   outer loop
     vertex -6.144303e-18  3.000000e-01  0.000000e+00
     vertex  1.246176e-01 -4.010866e-01  0.000000e+00
     vertex  8.156662e-02 -4.120035e-01  0.000000e+00
   endloop
 endfacet
 facet normal  0.000000e+00  0.000000e+00 -1.000000e+00
   outer loop
     vertex -6.144303e-18  3.000000e-01  0.000000e+00
     vertex  1.662751e-01 -3.856846e-01  0.000000e+00
     vertex  1.246176e-01 -4.010866e-01  0.000000e+00
   endloop
 endfacet
 facet normal  0.000000e+00  0.000000e+00 -1.000000e+00
   outer loop
     vertex -6.144303e-18  3.000000e-01  0.000000e+00
     vertex  2.060733e-01 -3.659697e-01  0.000000e+00
     vertex  1.662751e-01 -3.856846e-01  0.000000e+00
   endloop
 endfacet
 facet normal  0.000000e+00  0.000000e+00 -1.000000e+00
   outer loop
     vertex -6.144303e-18  3.000000e-01  0.000000e+00
     vertex  2.435670e-01 -3.421624e-01  0.000000e+00
     vertex  2.060733e-01 -3.659697e-01  0.000000e+00
   endloop
 endfacet
 facet normal  0.000000e+00  0.000000e+00 -1.000000e+00
   outer loop
     vertex -6.144303e-18  3.000000e-01  0.000000e+00
     vertex  2.783371e-01 -3.145289e-01  0.000000e+00
     vertex  2.435670e-01 -3.421624e-01  0.000000e+00
   endloop
 endfacet
 facet normal  0.000000e+00  0.000000e+00 -1.000000e+00
   outer loop
     vertex -4.981821e-03  3.050660e-01  0.000000e+00
     vertex -2.323944e-01  3.498469e-01  0.000000e+00
     vertex -1.941516e-01  3.724314e-01  0.000000e+00
   endloop
 endfacet
 facet normal -0.000000e+00 -0.000000e+00 -1.000000e+00
   outer loop
     vertex -4.981821e-03  3.050660e-01  0.000000e+00
     vertex -3.007839e-03  3.018463e-01  0.000000e+00
     vertex -2.323944e-01  3.498469e-01  0.000000e+00
   endloop
 endfacet
 facet normal  0.000000e+00  0.000000e+00 -1.000000e+00
   outer loop
     vertex  5.734765e-04  3.000671e-01  0.000000e+00
     vertex  3.099947e-01 -2.833783e-01  0.000000e+00
     vertex  2.783371e-01 -3.145289e-01  0.000000e+00
   endloop
 endfacet
 facet normal  0.000000e+00  0.000000e+00 -1.000000e+00
   outer loop
     vertex  5.734765e-04  3.000671e-01  0.000000e+00
     vertex  3.381859e-01 -2.490588e-01  0.000000e+00
     vertex  3.099947e-01 -2.833783e-01  0.000000e+00
   endloop
 endfacet
 facet normal  0.000000e+00  0.000000e+00 -1.000000e+00
   outer loop
     vertex  5.734765e-04  3.000671e-01  0.000000e+00
     vertex  3.625953e-01 -2.119543e-01  0.000000e+00
     vertex  3.381859e-01 -2.490588e-01  0.000000e+00
   endloop
 endfacet
 facet normal  0.000000e+00  0.000000e+00 -1.000000e+00
   outer loop
     vertex  5.734765e-04  3.000671e-01  0.000000e+00
     vertex  3.829501e-01 -1.724796e-01  0.000000e+00
     vertex  3.625953e-01 -2.119543e-01  0.000000e+00
   endloop
 endfacet
 facet normal  0.000000e+00  0.000000e+00 -1.000000e+00
   outer loop
     vertex  5.734765e-04  3.000671e-01  0.000000e+00
     vertex  3.990226e-01 -1.310762e-01  0.000000e+00
     vertex  3.829501e-01 -1.724796e-01  0.000000e+00
   endloop
 endfacet
 facet normal  0.000000e+00 -0.000000e+00 -1.000000e+00
   outer loop
     vertex  5.734765e-04  3.000671e-01  0.000000e+00
     vertex  2.783371e-01 -3.145289e-01  0.000000e+00
     vertex -6.144303e-18  3.000000e-01  0.000000e+00
   endloop
 endfacet
 facet normal  0.000000e+00  0.000000e+00 -1.000000e+00
   outer loop
     vertex -8.399450e-03  3.144102e-01  0.000000e+00
     vertex -1.537378e-01  3.908512e-01  0.000000e+00
     vertex -1.116048e-01  4.049004e-01  0.000000e+00
   endloop
 endfacet
 facet normal  0.000000e+00  0.000000e+00 -1.000000e+00
   outer loop
     vertex -8.399450e-03  3.144102e-01  0.000000e+00
     vertex -1.941516e-01  3.724314e-01  0.000000e+00
     vertex -1.537378e-01  3.908512e-01  0.000000e+00
   endloop
 endfacet
 facet normal -0.000000e+00 -0.000000e+00 -1.000000e+00
   outer loop
     vertex -8.399450e-03  3.144102e-01  0.000000e+00
     vertex -4.981821e-03  3.050660e-01  0.000000e+00
     vertex -1.941516e-01  3.724314e-01  0.000000e+00
   endloop
 endfacet
 facet normal -0.000000e+00  0.000000e+00 -1.000000e+00
   outer loop
     vertex  4.106331e-01 -8.820700e-02  0.000000e+00
     vertex  3.990226e-01 -1.310762e-01  0.000000e+00
     vertex  5.734765e-04  3.000671e-01  0.000000e+00
   endloop
 endfacet
 facet normal -0.000000e+00 -0.000000e+00 -1.000000e+00
   outer loop
     vertex -1.585451e-02  3.514755e-01  0.000000e+00
     vertex -8.399450e-03  3.144102e-01  0.000000e+00
     vertex -1.116048e-01  4.049004e-01  0.000000e+00
   endloop
 endfacet
 facet normal  0.000000e+00 -0.000000e+00 -1.000000e+00
   outer loop
     vertex -6.822382e-02  4.144219e-01  0.000000e+00
     vertex -1.585451e-02  3.514755e-01  0.000000e+00
     vertex -1.116048e-01  4.049004e-01  0.000000e+00
   endloop
 endfacet
 facet normal -0.000000e+00  0.000000e+00 -1.000000e+00
   outer loop
     vertex  4.176517e-01 -4.435148e-02  0.000000e+00
     vertex  4.106331e-01 -8.820700e-02  0.000000e+00
     vertex  5.734765e-04  3.000671e-01  0.000000e+00
   endloop
 endfacet
 facet normal  0.000000e+00 -0.000000e+00 -1.000000e+00
   outer loop
     vertex -2.407993e-02  4.193091e-01  0.000000e+00
     vertex -1.585451e-02  3.514755e-01  0.000000e+00
     vertex -6.822382e-02  4.144219e-01  0.000000e+00
   endloop
 endfacet
 facet normal  0.000000e+00  0.000000e+00 -1.000000e+00
   outer loop
     vertex  4.200000e-01 -1.028703e-16  0.000000e+00
     vertex  5.734765e-04  3.000671e-01  0.000000e+00
     vertex  1.145887e-03  3.002679e-01  0.000000e+00
   endloop
 endfacet
 facet normal -0.000000e+00  0.000000e+00 -1.000000e+00
   outer loop
     vertex  4.200000e-01 -1.028703e-16  0.000000e+00
     vertex  4.176517e-01 -4.435148e-02  0.000000e+00
     vertex  5.734765e-04  3.000671e-01  0.000000e+00
   endloop
 endfacet
 facet normal -0.000000e+00 -0.000000e+00 -1.000000e+00
   outer loop
     vertex  4.178640e-01  4.230423e-02  0.000000e+00
     vertex  4.200000e-01 -1.028703e-16  0.000000e+00
     vertex  1.145887e-03  3.002679e-01  0.000000e+00
   endloop
 endfacet
 facet normal -0.000000e+00  0.000000e+00 -1.000000e+00
   outer loop
     vertex  6.619210e-02  4.147513e-01  0.000000e+00
     vertex  1.585451e-02  3.514755e-01  0.000000e+00
     vertex  2.407993e-02  4.193091e-01  0.000000e+00
   endloop
 endfacet
 facet normal -0.000000e+00 -0.000000e+00 -1.000000e+00
   outer loop
     vertex  4.114779e-01  8.417817e-02  0.000000e+00
     vertex  4.178640e-01  4.230423e-02  0.000000e+00
     vertex  1.145887e-03  3.002679e-01  0.000000e+00
   endloop
 endfacet
 facet normal -0.000000e+00  0.000000e+00 -1.000000e+00
   outer loop
     vertex  1.076310e-01  4.059748e-01  0.000000e+00
     vertex  1.585451e-02  3.514755e-01  0.000000e+00
     vertex  6.619210e-02  4.147513e-01  0.000000e+00
   endloop
 endfacet
 facet normal  0.000000e+00  0.000000e+00 -1.000000e+00
   outer loop
     vertex  1.076310e-01  4.059748e-01  0.000000e+00
     vertex  8.399450e-03  3.144102e-01  0.000000e+00
     vertex  1.585451e-02  3.514755e-01  0.000000e+00
   endloop
 endfacet
 facet normal -0.000000e+00 -0.000000e+00 -1.000000e+00
   outer loop
     vertex  4.009065e-01  1.251959e-01  0.000000e+00
     vertex  4.114779e-01  8.417817e-02  0.000000e+00
     vertex  1.145887e-03  3.002679e-01  0.000000e+00
   endloop
 endfacet
 facet normal -0.000000e+00  0.000000e+00 -1.000000e+00
   outer loop
     vertex  1.479752e-01  3.930691e-01  0.000000e+00
     vertex  8.399450e-03  3.144102e-01  0.000000e+00
     vertex  1.076310e-01  4.059748e-01  0.000000e+00
   endloop
 endfacet
 facet normal -0.000000e+00 -0.000000e+00 -1.000000e+00
   outer loop
     vertex  3.862573e-01  1.649403e-01  0.000000e+00
     vertex  4.009065e-01  1.251959e-01  0.000000e+00
     vertex  1.145887e-03  3.002679e-01  0.000000e+00
   endloop
 endfacet
 facet normal  0.000000e+00  0.000000e+00 -1.000000e+00
   outer loop
     vertex  1.868143e-01  3.761654e-01  0.000000e+00
     vertex  4.981821e-03  3.050660e-01  0.000000e+00
     vertex  8.399450e-03  3.144102e-01  0.000000e+00
   endloop
 endfacet
 facet normal -0.000000e+00  0.000000e+00 -1.000000e+00
   outer loop
     vertex  1.868143e-01  3.761654e-01  0.000000e+00
     vertex  8.399450e-03  3.144102e-01  0.000000e+00
     vertex  1.479752e-01  3.930691e-01  0.000000e+00
   endloop
 endfacet
 facet normal -0.000000e+00 -0.000000e+00 -1.000000e+00
   outer loop
     vertex  3.676795e-01  2.030069e-01  0.000000e+00
     vertex  3.862573e-01  1.649403e-01  0.000000e+00
     vertex  1.145887e-03  3.002679e-01  0.000000e+00
   endloop
 endfacet
 facet normal  0.000000e+00  0.000000e+00 -1.000000e+00
   outer loop
     vertex  3.676795e-01  2.030069e-01  0.000000e+00
     vertex  1.145887e-03  3.002679e-01  0.000000e+00
     vertex  1.921389e-03  3.007533e-01  0.000000e+00
   endloop
 endfacet
 facet normal -0.000000e+00  0.000000e+00 -1.000000e+00
   outer loop
     vertex  2.237532e-01  3.554356e-01  0.000000e+00
     vertex  4.981821e-03  3.050660e-01  0.000000e+00
     vertex  1.868143e-01  3.761654e-01  0.000000e+00
   endloop
 endfacet
 facet normal  0.000000e+00  0.000000e+00 -1.000000e+00
   outer loop
     vertex  2.237532e-01  3.554356e-01  0.000000e+00
     vertex  3.007839e-03  3.018463e-01  0.000000e+00
     vertex  4.981821e-03  3.050660e-01  0.000000e+00
   endloop
 endfacet
 facet normal -0.000000e+00 -0.000000e+00 -1.000000e+00
   outer loop
     vertex  3.453618e-01  2.390088e-01  0.000000e+00
     vertex  3.676795e-01  2.030069e-01  0.000000e+00
     vertex  1.921389e-03  3.007533e-01  0.000000e+00
   endloop
 endfacet
 facet normal -0.000000e+00  0.000000e+00 -1.000000e+00
   outer loop
     vertex  2.584163e-01  3.310906e-01  0.000000e+00
     vertex  3.007839e-03  3.018463e-01  0.000000e+00
     vertex  2.237532e-01  3.554356e-01  0.000000e+00
   endloop
 endfacet
 facet normal -0.000000e+00 -0.000000e+00 -1.000000e+00
   outer loop
     vertex  3.195314e-01  2.725796e-01  0.000000e+00
     vertex  3.453618e-01  2.390088e-01  0.000000e+00
     vertex  1.921389e-03  3.007533e-01  0.000000e+00
   endloop
 endfacet
 facet normal -0.000000e+00  0.000000e+00 -1.000000e+00
   outer loop
     vertex  2.904510e-01  3.033780e-01  0.000000e+00
     vertex  3.007839e-03  3.018463e-01  0.000000e+00
     vertex  2.584163e-01  3.310906e-01  0.000000e+00
   endloop
 endfacet
 facet normal  0.000000e+00 -0.000000e+00 -1.000000e+00
   outer loop
     vertex  2.904510e-01  3.033780e-01  0.000000e+00
     vertex  3.195314e-01  2.725796e-01  0.000000e+00
     vertex  1.921389e-03  3.007533e-01  0.000000e+00
   endloop
 endfacet
 facet normal  0.000000e+00  0.000000e+00 -1.000000e+00
   outer loop
     vertex  2.904510e-01  3.033780e-01  0.000000e+00
     vertex  1.921389e-03  3.007533e-01  0.000000e+00
     vertex  3.007839e-03  3.018463e-01  0.000000e+00
   endloop
 endfacet
endsolid
