solid 
 facet normal  0.000000e+00  1.000000e+00  0.000000e+00
   outer loop
     vertex -1.127445e-01  1.240000e+00  1.847216e-01
     vertex -1.232385e-01  1.240000e+00  1.637835e-01
     vertex -1.184550e-01  1.240000e+00  1.744848e-01
   endloop
 endfacet
 facet normal  0.000000e+00  1.000000e+00  0.000000e+00
   outer loop
     vertex -2.907560e-02  1.240000e+00  2.443865e-01
     vertex -5.138184e-02  1.240000e+00  2.372477e-01
     vertex -4.038676e-02  1.240000e+00  2.413109e-01
   endloop
 endfacet
 facet normal  0.000000e+00  1.000000e+00  0.000000e+00
   outer loop
     vertex  1.127445e-01  1.240000e+00  1.847216e-01
     vertex  1.184550e-01  1.240000e+00  1.744848e-01
     vertex  1.232385e-01  1.240000e+00  1.637835e-01
   endloop
 endfacet
 facet normal  0.000000e+00  1.000000e+00  0.000000e+00
   outer loop
     vertex  8.162647e-02  1.240000e+00  2.194873e-01
     vertex  6.197479e-02  1.240000e+00  2.322287e-01
     vertex  7.208270e-02  1.240000e+00  2.262930e-01
   endloop
 endfacet
 facet normal  0.000000e+00  1.000000e+00  0.000000e+00
   outer loop
     vertex  9.053140e-02  1.240000e+00  2.118647e-01
     vertex -1.849548e-17  1.240000e+00 -1.738400e-02
     vertex -1.171036e-02  1.240000e+00 -1.686550e-02
   endloop
 endfacet
 facet normal  0.000000e+00  1.000000e+00  0.000000e+00
   outer loop
     vertex  9.053140e-02  1.240000e+00  2.118647e-01
     vertex -1.171036e-02  1.240000e+00 -1.686550e-02
     vertex -2.332908e-02  1.240000e+00 -1.531407e-02
   endloop
 endfacet
 facet normal  0.000000e+00  1.000000e+00  0.000000e+00
   outer loop
     vertex  9.053140e-02  1.240000e+00  2.118647e-01
     vertex -2.332908e-02  1.240000e+00 -1.531407e-02
     vertex -3.476521e-02  1.240000e+00 -1.274185e-02
   endloop
 endfacet
 facet normal  0.000000e+00  1.000000e+00  0.000000e+00
   outer loop
     vertex  9.053140e-02  1.240000e+00  2.118647e-01
     vertex -3.476521e-02  1.240000e+00 -1.274185e-02
     vertex -4.592926e-02  1.240000e+00 -9.168968e-03
   endloop
 endfacet
 facet normal  0.000000e+00  1.000000e+00  0.000000e+00
   outer loop
     vertex  9.053140e-02  1.240000e+00  2.118647e-01
     vertex -4.592926e-02  1.240000e+00 -9.168968e-03
     vertex -5.673385e-02  1.240000e+00 -4.623386e-03
   endloop
 endfacet
 facet normal  0.000000e+00  1.000000e+00  0.000000e+00
   outer loop
     vertex  9.053140e-02  1.240000e+00  2.118647e-01
     vertex -5.673385e-02  1.240000e+00 -4.623386e-03
     vertex -6.709442e-02  1.240000e+00  8.593191e-04
   endloop
 endfacet
 facet normal  0.000000e+00  1.000000e+00  0.000000e+00
   outer loop
     vertex  9.053140e-02  1.240000e+00  2.118647e-01
     vertex -6.709442e-02  1.240000e+00  8.593191e-04
     vertex -7.692988e-02  1.240000e+00  7.236238e-03
   endloop
 endfacet
 facet normal  0.000000e+00  1.000000e+00  0.000000e+00
   outer loop
     vertex  9.053140e-02  1.240000e+00  2.118647e-01
     vertex -7.692988e-02  1.240000e+00  7.236238e-03
     vertex -8.616327e-02  1.240000e+00  1.445746e-02
   endloop
 endfacet
 facet normal  0.000000e+00  1.000000e+00  0.000000e+00
   outer loop
     vertex  9.053140e-02  1.240000e+00  2.118647e-01
     vertex -8.616327e-02  1.240000e+00  1.445746e-02
     vertex -9.472231e-02  1.240000e+00  2.246647e-02
   endloop
 endfacet
 facet normal  0.000000e+00  1.000000e+00  0.000000e+00
   outer loop
     vertex  9.053140e-02  1.240000e+00  2.118647e-01
     vertex -9.472231e-02  1.240000e+00  2.246647e-02
     vertex -1.025400e-01  1.240000e+00  3.120060e-02
   endloop
 endfacet
 facet normal  0.000000e+00  1.000000e+00  0.000000e+00
   outer loop
     vertex  9.053140e-02  1.240000e+00  2.118647e-01
     vertex -1.025400e-01  1.240000e+00  3.120060e-02
     vertex -1.095552e-01  1.240000e+00  4.059147e-02
   endloop
 endfacet
 facet normal  0.000000e+00  1.000000e+00  0.000000e+00
   outer loop
     vertex  9.053140e-02  1.240000e+00  2.118647e-01
     vertex -1.095552e-01  1.240000e+00  4.059147e-02
     vertex -1.157130e-01  1.240000e+00  5.056560e-02
   endloop
 endfacet
 facet normal  0.000000e+00  1.000000e+00  0.000000e+00
   outer loop
     vertex  9.053140e-02  1.240000e+00  2.118647e-01
     vertex -1.157130e-01  1.240000e+00  5.056560e-02
     vertex -1.209652e-01  1.240000e+00  6.104492e-02
   endloop
 endfacet
 facet normal  0.000000e+00  1.000000e+00  0.000000e+00
   outer loop
     vertex  9.053140e-02  1.240000e+00  2.118647e-01
     vertex -1.209652e-01  1.240000e+00  6.104492e-02
     vertex -1.252706e-01  1.240000e+00  7.194742e-02
   endloop
 endfacet
 facet normal  0.000000e+00  1.000000e+00  0.000000e+00
   outer loop
     vertex  9.053140e-02  1.240000e+00  2.118647e-01
     vertex -1.252706e-01  1.240000e+00  7.194742e-02
     vertex -1.285956e-01  1.240000e+00  8.318778e-02
   endloop
 endfacet
 facet normal  0.000000e+00  1.000000e+00  0.000000e+00
   outer loop
     vertex  9.053140e-02  1.240000e+00  2.118647e-01
     vertex -1.232385e-01  1.240000e+00  1.637835e-01
     vertex -1.127445e-01  1.240000e+00  1.847216e-01
   endloop
 endfacet
 facet normal  0.000000e+00  1.000000e+00  0.000000e+00
   outer loop
     vertex  9.053140e-02  1.240000e+00  2.118647e-01
     vertex -1.285956e-01  1.240000e+00  8.318778e-02
     vertex -1.309142e-01  1.240000e+00  9.467802e-02
   endloop
 endfacet
 facet normal  0.000000e+00  1.000000e+00  0.000000e+00
   outer loop
     vertex  9.053140e-02  1.240000e+00  2.118647e-01
     vertex -1.309142e-01  1.240000e+00  9.467802e-02
     vertex -1.322083e-01  1.240000e+00  1.063282e-01
   endloop
 endfacet
 facet normal  0.000000e+00  1.000000e+00  0.000000e+00
   outer loop
     vertex  9.053140e-02  1.240000e+00  2.118647e-01
     vertex -1.322083e-01  1.240000e+00  1.063282e-01
     vertex -1.324676e-01  1.240000e+00  1.180472e-01
   endloop
 endfacet
 facet normal  0.000000e+00  1.000000e+00  0.000000e+00
   outer loop
     vertex  9.053140e-02  1.240000e+00  2.118647e-01
     vertex -1.324676e-01  1.240000e+00  1.180472e-01
     vertex -1.316901e-01  1.240000e+00  1.297432e-01
   endloop
 endfacet
 facet normal  0.000000e+00  1.000000e+00  0.000000e+00
   outer loop
     vertex  9.053140e-02  1.240000e+00  2.118647e-01
     vertex -1.316901e-01  1.240000e+00  1.297432e-01
     vertex -1.298821e-01  1.240000e+00  1.413248e-01
   endloop
 endfacet
 facet normal  0.000000e+00  1.000000e+00  0.000000e+00
   outer loop
     vertex  9.053140e-02  1.240000e+00  2.118647e-01
     vertex -1.298821e-01  1.240000e+00  1.413248e-01
     vertex -1.270575e-01  1.240000e+00  1.527012e-01
   endloop
 endfacet
 facet normal  0.000000e+00  1.000000e+00  0.000000e+00
   outer loop
     vertex  9.053140e-02  1.240000e+00  2.118647e-01
     vertex -1.270575e-01  1.240000e+00  1.527012e-01
     vertex -1.232385e-01  1.240000e+00  1.637835e-01
   endloop
 endfacet
 facet normal  0.000000e+00  1.000000e+00  0.000000e+00
   outer loop
     vertex  9.053140e-02  1.240000e+00  2.118647e-01
     vertex -5.138184e-02  1.240000e+00  2.372477e-01
     vertex -2.907560e-02  1.240000e+00  2.443865e-01
   endloop
 endfacet
 facet normal  0.000000e+00  1.000000e+00  0.000000e+00
   outer loop
     vertex  9.053140e-02  1.240000e+00  2.118647e-01
     vertex -1.127445e-01  1.240000e+00  1.847216e-01
     vertex -1.061515e-01  1.240000e+00  1.944136e-01
   endloop
 endfacet
 facet normal  0.000000e+00  1.000000e+00  0.000000e+00
   outer loop
     vertex  9.053140e-02  1.240000e+00  2.118647e-01
     vertex -1.061515e-01  1.240000e+00  1.944136e-01
     vertex -9.872779e-02  1.240000e+00  2.034850e-01
   endloop
 endfacet
 facet normal  0.000000e+00  1.000000e+00  0.000000e+00
   outer loop
     vertex  9.053140e-02  1.240000e+00  2.118647e-01
     vertex -9.872779e-02  1.240000e+00  2.034850e-01
     vertex -9.053140e-02  1.240000e+00  2.118647e-01
   endloop
 endfacet
 facet normal  0.000000e+00  1.000000e+00  0.000000e+00
   outer loop
     vertex  9.053140e-02  1.240000e+00  2.118647e-01
     vertex -9.053140e-02  1.240000e+00  2.118647e-01
     vertex -8.162647e-02  1.240000e+00  2.194873e-01
   endloop
 endfacet
 facet normal  0.000000e+00  1.000000e+00  0.000000e+00
   outer loop
     vertex  9.053140e-02  1.240000e+00  2.118647e-01
     vertex -8.162647e-02  1.240000e+00  2.194873e-01
     vertex -7.208270e-02  1.240000e+00  2.262930e-01
   endloop
 endfacet
 facet normal  0.000000e+00  1.000000e+00  0.000000e+00
   outer loop
     vertex  9.053140e-02  1.240000e+00  2.118647e-01
     vertex -7.208270e-02  1.240000e+00  2.262930e-01
     vertex -6.197479e-02  1.240000e+00  2.322287e-01
   endloop
 endfacet
 facet normal  0.000000e+00  1.000000e+00  0.000000e+00
   outer loop
     vertex  9.053140e-02  1.240000e+00  2.118647e-01
     vertex -6.197479e-02  1.240000e+00  2.322287e-01
     vertex -5.138184e-02  1.240000e+00  2.372477e-01
   endloop
 endfacet
 facet normal  0.000000e+00  1.000000e+00  0.000000e+00
   outer loop
     vertex  9.053140e-02  1.240000e+00  2.118647e-01
     vertex -2.907560e-02  1.240000e+00  2.443865e-01
     vertex -1.753689e-02  1.240000e+00  2.464503e-01
   endloop
 endfacet
 facet normal  0.000000e+00  1.000000e+00  0.000000e+00
   outer loop
     vertex  9.053140e-02  1.240000e+00  2.118647e-01
     vertex -1.753689e-02  1.240000e+00  2.464503e-01
     vertex -5.860918e-03  1.240000e+00  2.474863e-01
   endloop
 endfacet
 facet normal  0.000000e+00  1.000000e+00  0.000000e+00
   outer loop
     vertex  9.053140e-02  1.240000e+00  2.118647e-01
     vertex -5.860918e-03  1.240000e+00  2.474863e-01
     vertex  5.860918e-03  1.240000e+00  2.474863e-01
   endloop
 endfacet
 facet normal  0.000000e+00  1.000000e+00  0.000000e+00
   outer loop
     vertex  9.053140e-02  1.240000e+00  2.118647e-01
     vertex  5.860918e-03  1.240000e+00  2.474863e-01
     vertex  1.753689e-02  1.240000e+00  2.464503e-01
   endloop
 endfacet
 facet normal  0.000000e+00  1.000000e+00  0.000000e+00
   outer loop
     vertex  9.053140e-02  1.240000e+00  2.118647e-01
     vertex  1.753689e-02  1.240000e+00  2.464503e-01
     vertex  2.907560e-02  1.240000e+00  2.443865e-01
   endloop
 endfacet
 facet normal  0.000000e+00  1.000000e+00  0.000000e+00
   outer loop
     vertex  9.053140e-02  1.240000e+00  2.118647e-01
     vertex  2.907560e-02  1.240000e+00  2.443865e-01
     vertex  4.038676e-02  1.240000e+00  2.413109e-01
   endloop
 endfacet
 facet normal  0.000000e+00  1.000000e+00  0.000000e+00
   outer loop
     vertex  9.053140e-02  1.240000e+00  2.118647e-01
     vertex  4.038676e-02  1.240000e+00  2.413109e-01
     vertex  5.138184e-02  1.240000e+00  2.372477e-01
   endloop
 endfacet
 facet normal  0.000000e+00  1.000000e+00  0.000000e+00
   outer loop
     vertex  9.053140e-02  1.240000e+00  2.118647e-01
     vertex  5.138184e-02  1.240000e+00  2.372477e-01
     vertex  6.197479e-02  1.240000e+00  2.322287e-01
   endloop
 endfacet
 facet normal  0.000000e+00  1.000000e+00  0.000000e+00
   outer loop
     vertex  9.053140e-02  1.240000e+00  2.118647e-01
     vertex  9.872779e-02  1.240000e+00  2.034850e-01
     vertex  1.061515e-01  1.240000e+00  1.944136e-01
   endloop
 endfacet
 facet normal  0.000000e+00  1.000000e+00  0.000000e+00
   outer loop
     vertex  9.053140e-02  1.240000e+00  2.118647e-01
     vertex  1.061515e-01  1.240000e+00  1.944136e-01
     vertex  1.127445e-01  1.240000e+00  1.847216e-01
   endloop
 endfacet
 facet normal  0.000000e+00  1.000000e+00  0.000000e+00
   outer loop
     vertex  9.053140e-02  1.240000e+00  2.118647e-01
     vertex  1.232385e-01  1.240000e+00  1.637835e-01
     vertex  1.270575e-01  1.240000e+00  1.527012e-01
   endloop
 endfacet
 facet normal  0.000000e+00  1.000000e+00  0.000000e+00
   outer loop
     vertex  9.053140e-02  1.240000e+00  2.118647e-01
     vertex  1.270575e-01  1.240000e+00  1.527012e-01
     vertex  1.298821e-01  1.240000e+00  1.413248e-01
   endloop
 endfacet
 facet normal  0.000000e+00  1.000000e+00  0.000000e+00
   outer loop
     vertex  9.053140e-02  1.240000e+00  2.118647e-01
     vertex  1.298821e-01  1.240000e+00  1.413248e-01
     vertex  1.316901e-01  1.240000e+00  1.297432e-01
   endloop
 endfacet
 facet normal  0.000000e+00  1.000000e+00  0.000000e+00
   outer loop
     vertex  9.053140e-02  1.240000e+00  2.118647e-01
     vertex  1.316901e-01  1.240000e+00  1.297432e-01
     vertex  1.324676e-01  1.240000e+00  1.180472e-01
   endloop
 endfacet
 facet normal  0.000000e+00  1.000000e+00  0.000000e+00
   outer loop
     vertex  9.053140e-02  1.240000e+00  2.118647e-01
     vertex  1.324676e-01  1.240000e+00  1.180472e-01
     vertex  1.322083e-01  1.240000e+00  1.063282e-01
   endloop
 endfacet
 facet normal  0.000000e+00  1.000000e+00  0.000000e+00
   outer loop
     vertex  9.053140e-02  1.240000e+00  2.118647e-01
     vertex  1.322083e-01  1.240000e+00  1.063282e-01
     vertex  1.309142e-01  1.240000e+00  9.467802e-02
   endloop
 endfacet
 facet normal  0.000000e+00  1.000000e+00  0.000000e+00
   outer loop
     vertex  9.053140e-02  1.240000e+00  2.118647e-01
     vertex  1.309142e-01  1.240000e+00  9.467802e-02
     vertex  1.285956e-01  1.240000e+00  8.318778e-02
   endloop
 endfacet
 facet normal  0.000000e+00  1.000000e+00  0.000000e+00
   outer loop
     vertex  9.053140e-02  1.240000e+00  2.118647e-01
     vertex  1.285956e-01  1.240000e+00  8.318778e-02
     vertex  1.252706e-01  1.240000e+00  7.194742e-02
   endloop
 endfacet
 facet normal  0.000000e+00  1.000000e+00  0.000000e+00
   outer loop
     vertex  9.053140e-02  1.240000e+00  2.118647e-01
     vertex  1.252706e-01  1.240000e+00  7.194742e-02
     vertex  1.209652e-01  1.240000e+00  6.104492e-02
   endloop
 endfacet
 facet normal  0.000000e+00  1.000000e+00  0.000000e+00
   outer loop
     vertex  9.053140e-02  1.240000e+00  2.118647e-01
     vertex  1.209652e-01  1.240000e+00  6.104492e-02
     vertex  1.157130e-01  1.240000e+00  5.056560e-02
   endloop
 endfacet
 facet normal  0.000000e+00  1.000000e+00  0.000000e+00
   outer loop
     vertex  9.053140e-02  1.240000e+00  2.118647e-01
     vertex  1.157130e-01  1.240000e+00  5.056560e-02
     vertex  1.095552e-01  1.240000e+00  4.059147e-02
   endloop
 endfacet
 facet normal  0.000000e+00  1.000000e+00  0.000000e+00
   outer loop
     vertex  9.053140e-02  1.240000e+00  2.118647e-01
     vertex  1.095552e-01  1.240000e+00  4.059147e-02
     vertex  1.025400e-01  1.240000e+00  3.120060e-02
   endloop
 endfacet
 facet normal  0.000000e+00  1.000000e+00  0.000000e+00
   outer loop
     vertex  9.053140e-02  1.240000e+00  2.118647e-01
     vertex  1.025400e-01  1.240000e+00  3.120060e-02
     vertex  9.472231e-02  1.240000e+00  2.246647e-02
   endloop
 endfacet
 facet normal  0.000000e+00  1.000000e+00  0.000000e+00
   outer loop
     vertex  9.053140e-02  1.240000e+00  2.118647e-01
     vertex  9.472231e-02  1.240000e+00  2.246647e-02
     vertex  8.616327e-02  1.240000e+00  1.445746e-02
   endloop
 endfacet
 facet normal  0.000000e+00  1.000000e+00  0.000000e+00
   outer loop
     vertex  9.053140e-02  1.240000e+00  2.118647e-01
     vertex  8.616327e-02  1.240000e+00  1.445746e-02
     vertex  7.692988e-02  1.240000e+00  7.236238e-03
   endloop
 endfacet
 facet normal  0.000000e+00  1.000000e+00  0.000000e+00
   outer loop
     vertex  9.053140e-02  1.240000e+00  2.118647e-01
     vertex  7.692988e-02  1.240000e+00  7.236238e-03
     vertex  6.709442e-02  1.240000e+00  8.593191e-04
   endloop
 endfacet
 facet normal  0.000000e+00  1.000000e+00  0.000000e+00
   outer loop
     vertex  9.053140e-02  1.240000e+00  2.118647e-01
     vertex  6.709442e-02  1.240000e+00  8.593191e-04
     vertex  5.673385e-02  1.240000e+00 -4.623386e-03
   endloop
 endfacet
 facet normal  0.000000e+00  1.000000e+00  0.000000e+00
   outer loop
     vertex  9.053140e-02  1.240000e+00  2.118647e-01
     vertex  5.673385e-02  1.240000e+00 -4.623386e-03
     vertex  4.592926e-02  1.240000e+00 -9.168968e-03
   endloop
 endfacet
 facet normal  0.000000e+00  1.000000e+00  0.000000e+00
   outer loop
     vertex  9.053140e-02  1.240000e+00  2.118647e-01
     vertex  4.592926e-02  1.240000e+00 -9.168968e-03
     vertex  3.476521e-02  1.240000e+00 -1.274185e-02
   endloop
 endfacet
 facet normal  0.000000e+00  1.000000e+00  0.000000e+00
   outer loop
     vertex  9.053140e-02  1.240000e+00  2.118647e-01
     vertex  6.197479e-02  1.240000e+00  2.322287e-01
     vertex  8.162647e-02  1.240000e+00  2.194873e-01
   endloop
 endfacet
 facet normal  0.000000e+00  1.000000e+00  0.000000e+00
   outer loop
     vertex  9.053140e-02  1.240000e+00  2.118647e-01
     vertex  3.476521e-02  1.240000e+00 -1.274185e-02
     vertex  2.332908e-02  1.240000e+00 -1.531407e-02
   endloop
 endfacet
 facet normal  0.000000e+00  1.000000e+00  0.000000e+00
   outer loop
     vertex  9.053140e-02  1.240000e+00  2.118647e-01
     vertex  2.332908e-02  1.240000e+00 -1.531407e-02
     vertex  1.171036e-02  1.240000e+00 -1.686550e-02
   endloop
 endfacet
 facet normal  0.000000e+00  1.000000e+00  0.000000e+00
   outer loop
     vertex  9.053140e-02  1.240000e+00  2.118647e-01
     vertex  1.171036e-02  1.240000e+00 -1.686550e-02
     vertex -1.849548e-17  1.240000e+00 -1.738400e-02
   endloop
 endfacet
 facet normal  0.000000e+00  1.000000e+00  0.000000e+00
   outer loop
     vertex  9.053140e-02  1.240000e+00  2.118647e-01
     vertex  1.127445e-01  1.240000e+00  1.847216e-01
     vertex  1.232385e-01  1.240000e+00  1.637835e-01
   endloop
 endfacet
endsolid
