solid 
 facet normal  0.000000e+00 -1.000000e+00 -0.000000e+00
   outer loop
     vertex  7.576208e-02 -1.700000e+00  4.115008e-01
     vertex -1.103614e-01 -1.700000e+00  3.138000e-01
     vertex  1.103614e-01 -1.700000e+00  3.138000e-01
   endloop
 endfacet
 facet normal  0.000000e+00 -1.000000e+00  0.000000e+00
   outer loop
     vertex  7.576208e-02 -1.700000e+00  4.115008e-01
     vertex -1.113305e-01 -1.700000e+00  3.235484e-01
     vertex -1.103614e-01 -1.700000e+00  3.138000e-01
   endloop
 endfacet
 facet normal  0.000000e+00 -1.000000e+00  0.000000e+00
   outer loop
     vertex  7.576208e-02 -1.700000e+00  4.115008e-01
     vertex -1.114402e-01 -1.700000e+00  3.333442e-01
     vertex -1.113305e-01 -1.700000e+00  3.235484e-01
   endloop
 endfacet
 facet normal  0.000000e+00 -1.000000e+00  0.000000e+00
   outer loop
     vertex  7.576208e-02 -1.700000e+00  4.115008e-01
     vertex -1.106897e-01 -1.700000e+00  3.431119e-01
     vertex -1.114402e-01 -1.700000e+00  3.333442e-01
   endloop
 endfacet
 facet normal  0.000000e+00 -1.000000e+00  0.000000e+00
   outer loop
     vertex  7.576208e-02 -1.700000e+00  4.115008e-01
     vertex -1.090847e-01 -1.700000e+00  3.527759e-01
     vertex -1.106897e-01 -1.700000e+00  3.431119e-01
   endloop
 endfacet
 facet normal  0.000000e+00 -1.000000e+00  0.000000e+00
   outer loop
     vertex  7.576208e-02 -1.700000e+00  4.115008e-01
     vertex -1.066376e-01 -1.700000e+00  3.622618e-01
     vertex -1.090847e-01 -1.700000e+00  3.527759e-01
   endloop
 endfacet
 facet normal  0.000000e+00 -1.000000e+00  0.000000e+00
   outer loop
     vertex  7.576208e-02 -1.700000e+00  4.115008e-01
     vertex -1.033674e-01 -1.700000e+00  3.714963e-01
     vertex -1.066376e-01 -1.700000e+00  3.622618e-01
   endloop
 endfacet
 facet normal  0.000000e+00 -1.000000e+00  0.000000e+00
   outer loop
     vertex  7.576208e-02 -1.700000e+00  4.115008e-01
     vertex -9.929919e-02 -1.700000e+00  3.804081e-01
     vertex -1.033674e-01 -1.700000e+00  3.714963e-01
   endloop
 endfacet
 facet normal  0.000000e+00 -1.000000e+00  0.000000e+00
   outer loop
     vertex  7.576208e-02 -1.700000e+00  4.115008e-01
     vertex -9.446446e-02 -1.700000e+00  3.889284e-01
     vertex -9.929919e-02 -1.700000e+00  3.804081e-01
   endloop
 endfacet
 facet normal  0.000000e+00 -1.000000e+00  0.000000e+00
   outer loop
     vertex  7.576208e-02 -1.700000e+00  4.115008e-01
     vertex -8.890052e-02 -1.700000e+00  3.969915e-01
     vertex -9.446446e-02 -1.700000e+00  3.889284e-01
   endloop
 endfacet
 facet normal  0.000000e+00 -1.000000e+00  0.000000e+00
   outer loop
     vertex  7.576208e-02 -1.700000e+00  4.115008e-01
     vertex -8.265030e-02 -1.700000e+00  4.045350e-01
     vertex -8.890052e-02 -1.700000e+00  3.969915e-01
   endloop
 endfacet
 facet normal  0.000000e+00 -1.000000e+00  0.000000e+00
   outer loop
     vertex  7.576208e-02 -1.700000e+00  4.115008e-01
     vertex -7.576208e-02 -1.700000e+00  4.115008e-01
     vertex -8.265030e-02 -1.700000e+00  4.045350e-01
   endloop
 endfacet
 facet normal -0.000000e+00 -1.000000e+00  0.000000e+00
   outer loop
     vertex  7.576208e-02 -1.700000e+00  4.115008e-01
     vertex -6.828901e-02 -1.700000e+00  4.178351e-01
     vertex -7.576208e-02 -1.700000e+00  4.115008e-01
   endloop
 endfacet
 facet normal  0.000000e+00 -1.000000e+00  0.000000e+00
   outer loop
     vertex  7.576208e-02 -1.700000e+00  4.115008e-01
     vertex -6.028879e-02 -1.700000e+00  4.234891e-01
     vertex -6.828901e-02 -1.700000e+00  4.178351e-01
   endloop
 endfacet
 facet normal  0.000000e+00 -1.000000e+00  0.000000e+00
   outer loop
     vertex  7.576208e-02 -1.700000e+00  4.115008e-01
     vertex -5.182317e-02 -1.700000e+00  4.284189e-01
     vertex -6.028879e-02 -1.700000e+00  4.234891e-01
   endloop
 endfacet
 facet normal  0.000000e+00 -1.000000e+00  0.000000e+00
   outer loop
     vertex  7.576208e-02 -1.700000e+00  4.115008e-01
     vertex -4.295750e-02 -1.700000e+00  4.325867e-01
     vertex -5.182317e-02 -1.700000e+00  4.284189e-01
   endloop
 endfacet
 facet normal  0.000000e+00 -1.000000e+00  0.000000e+00
   outer loop
     vertex  7.576208e-02 -1.700000e+00  4.115008e-01
     vertex -3.376022e-02 -1.700000e+00  4.359602e-01
     vertex -4.295750e-02 -1.700000e+00  4.325867e-01
   endloop
 endfacet
 facet normal  0.000000e+00 -1.000000e+00  0.000000e+00
   outer loop
     vertex  7.576208e-02 -1.700000e+00  4.115008e-01
     vertex -2.430234e-02 -1.700000e+00  4.385133e-01
     vertex -3.376022e-02 -1.700000e+00  4.359602e-01
   endloop
 endfacet
 facet normal  0.000000e+00 -1.000000e+00  0.000000e+00
   outer loop
     vertex  7.576208e-02 -1.700000e+00  4.115008e-01
     vertex -1.465685e-02 -1.700000e+00  4.402265e-01
     vertex -2.430234e-02 -1.700000e+00  4.385133e-01
   endloop
 endfacet
 facet normal  0.000000e+00 -1.000000e+00  0.000000e+00
   outer loop
     vertex  7.576208e-02 -1.700000e+00  4.115008e-01
     vertex -4.898221e-03 -1.700000e+00  4.410864e-01
     vertex -1.465685e-02 -1.700000e+00  4.402265e-01
   endloop
 endfacet
 facet normal  0.000000e+00 -1.000000e+00  0.000000e+00
   outer loop
     vertex  7.576208e-02 -1.700000e+00  4.115008e-01
     vertex  4.898221e-03 -1.700000e+00  4.410864e-01
     vertex -4.898221e-03 -1.700000e+00  4.410864e-01
   endloop
 endfacet
 facet normal  0.000000e+00 -1.000000e+00  0.000000e+00
   outer loop
     vertex  7.576208e-02 -1.700000e+00  4.115008e-01
     vertex  1.465685e-02 -1.700000e+00  4.402265e-01
     vertex  4.898221e-03 -1.700000e+00  4.410864e-01
   endloop
 endfacet
 facet normal  0.000000e+00 -1.000000e+00  0.000000e+00
   outer loop
     vertex  7.576208e-02 -1.700000e+00  4.115008e-01
     vertex  2.430234e-02 -1.700000e+00  4.385133e-01
     vertex  1.465685e-02 -1.700000e+00  4.402265e-01
   endloop
 endfacet
 facet normal  0.000000e+00 -1.000000e+00  0.000000e+00
   outer loop
     vertex  7.576208e-02 -1.700000e+00  4.115008e-01
     vertex  3.376022e-02 -1.700000e+00  4.359602e-01
     vertex  2.430234e-02 -1.700000e+00  4.385133e-01
   endloop
 endfacet
 facet normal  0.000000e+00 -1.000000e+00  0.000000e+00
   outer loop
     vertex  7.576208e-02 -1.700000e+00  4.115008e-01
     vertex  4.295750e-02 -1.700000e+00  4.325867e-01
     vertex  3.376022e-02 -1.700000e+00  4.359602e-01
   endloop
 endfacet
 facet normal  0.000000e+00 -1.000000e+00  0.000000e+00
   outer loop
     vertex  7.576208e-02 -1.700000e+00  4.115008e-01
     vertex  5.182317e-02 -1.700000e+00  4.284189e-01
     vertex  4.295750e-02 -1.700000e+00  4.325867e-01
   endloop
 endfacet
 facet normal  0.000000e+00 -1.000000e+00  0.000000e+00
   outer loop
     vertex  7.576208e-02 -1.700000e+00  4.115008e-01
     vertex  6.028879e-02 -1.700000e+00  4.234891e-01
     vertex  5.182317e-02 -1.700000e+00  4.284189e-01
   endloop
 endfacet
 facet normal  0.000000e+00 -1.000000e+00  0.000000e+00
   outer loop
     vertex  7.576208e-02 -1.700000e+00  4.115008e-01
     vertex  6.828901e-02 -1.700000e+00  4.178351e-01
     vertex  6.028879e-02 -1.700000e+00  4.234891e-01
   endloop
 endfacet
 facet normal  0.000000e+00 -1.000000e+00  0.000000e+00
   outer loop
     vertex  7.576208e-02 -1.700000e+00  4.115008e-01
     vertex  8.890052e-02 -1.700000e+00  3.969915e-01
     vertex  8.265030e-02 -1.700000e+00  4.045350e-01
   endloop
 endfacet
 facet normal  0.000000e+00 -1.000000e+00  0.000000e+00
   outer loop
     vertex  7.576208e-02 -1.700000e+00  4.115008e-01
     vertex  9.446446e-02 -1.700000e+00  3.889284e-01
     vertex  8.890052e-02 -1.700000e+00  3.969915e-01
   endloop
 endfacet
 facet normal  0.000000e+00 -1.000000e+00  0.000000e+00
   outer loop
     vertex  7.576208e-02 -1.700000e+00  4.115008e-01
     vertex  9.929919e-02 -1.700000e+00  3.804081e-01
     vertex  9.446446e-02 -1.700000e+00  3.889284e-01
   endloop
 endfacet
 facet normal  0.000000e+00 -1.000000e+00  0.000000e+00
   outer loop
     vertex  7.576208e-02 -1.700000e+00  4.115008e-01
     vertex  1.033674e-01 -1.700000e+00  3.714963e-01
     vertex  9.929919e-02 -1.700000e+00  3.804081e-01
   endloop
 endfacet
 facet normal  0.000000e+00 -1.000000e+00  0.000000e+00
   outer loop
     vertex  7.576208e-02 -1.700000e+00  4.115008e-01
     vertex  1.066376e-01 -1.700000e+00  3.622618e-01
     vertex  1.033674e-01 -1.700000e+00  3.714963e-01
   endloop
 endfacet
 facet normal  0.000000e+00 -1.000000e+00  0.000000e+00
   outer loop
     vertex  7.576208e-02 -1.700000e+00  4.115008e-01
     vertex  1.090847e-01 -1.700000e+00  3.527759e-01
     vertex  1.066376e-01 -1.700000e+00  3.622618e-01
   endloop
 endfacet
 facet normal  0.000000e+00 -1.000000e+00  0.000000e+00
   outer loop
     vertex  7.576208e-02 -1.700000e+00  4.115008e-01
     vertex  1.106897e-01 -1.700000e+00  3.431119e-01
     vertex  1.090847e-01 -1.700000e+00  3.527759e-01
   endloop
 endfacet
 facet normal  0.000000e+00 -1.000000e+00  0.000000e+00
   outer loop
     vertex  7.576208e-02 -1.700000e+00  4.115008e-01
     vertex  1.114402e-01 -1.700000e+00  3.333442e-01
     vertex  1.106897e-01 -1.700000e+00  3.431119e-01
   endloop
 endfacet
 facet normal  0.000000e+00 -1.000000e+00  0.000000e+00
   outer loop
     vertex  7.576208e-02 -1.700000e+00  4.115008e-01
     vertex  1.113305e-01 -1.700000e+00  3.235484e-01
     vertex  1.114402e-01 -1.700000e+00  3.333442e-01
   endloop
 endfacet
 facet normal  0.000000e+00 -1.000000e+00  0.000000e+00
   outer loop
     vertex  7.576208e-02 -1.700000e+00  4.115008e-01
     vertex  1.103614e-01 -1.700000e+00  3.138000e-01
     vertex  1.113305e-01 -1.700000e+00  3.235484e-01
   endloop
 endfacet
endsolid
